<mxfile host="app.diagrams.net" agent="Mozilla/5.0 (Macintosh; Intel Mac OS X 10_15_7) AppleWebKit/537.36 (KHTML, like Gecko) Chrome/131.0.0.0 Safari/537.36" version="25.0.3" pages="2">
  <diagram name="第 1 页" id="WhX8iI7K3yTWGit2KX0n">
    <mxGraphModel dx="1481" dy="818" grid="0" gridSize="10" guides="1" tooltips="1" connect="1" arrows="1" fold="1" page="0" pageScale="1" pageWidth="1200" pageHeight="1920" math="1" shadow="0">
      <root>
        <mxCell id="0" />
        <mxCell id="1" parent="0" />
        <mxCell id="RAYngRUUD1xXs5mZ_DVb-1" value="`a_1`" style="ellipse;whiteSpace=wrap;html=1;aspect=fixed;" vertex="1" parent="1">
          <mxGeometry x="39" y="335" width="30" height="30" as="geometry" />
        </mxCell>
        <mxCell id="RAYngRUUD1xXs5mZ_DVb-4" value="`a_2`" style="ellipse;whiteSpace=wrap;html=1;aspect=fixed;" vertex="1" parent="1">
          <mxGeometry x="76" y="335" width="30" height="30" as="geometry" />
        </mxCell>
        <mxCell id="RAYngRUUD1xXs5mZ_DVb-5" value="`a_3`" style="ellipse;whiteSpace=wrap;html=1;aspect=fixed;" vertex="1" parent="1">
          <mxGeometry x="175" y="335" width="30" height="30" as="geometry" />
        </mxCell>
        <mxCell id="RAYngRUUD1xXs5mZ_DVb-6" value="`a_4`" style="ellipse;whiteSpace=wrap;html=1;aspect=fixed;" vertex="1" parent="1">
          <mxGeometry x="213" y="335" width="30" height="30" as="geometry" />
        </mxCell>
        <mxCell id="RAYngRUUD1xXs5mZ_DVb-8" value="" style="endArrow=classic;html=1;rounded=0;" edge="1" parent="1">
          <mxGeometry width="50" height="50" relative="1" as="geometry">
            <mxPoint x="47" y="427" as="sourcePoint" />
            <mxPoint x="441" y="427" as="targetPoint" />
          </mxGeometry>
        </mxCell>
        <mxCell id="RAYngRUUD1xXs5mZ_DVb-12" value="`a_5`" style="ellipse;whiteSpace=wrap;html=1;aspect=fixed;" vertex="1" parent="1">
          <mxGeometry x="311" y="335" width="30" height="30" as="geometry" />
        </mxCell>
        <mxCell id="RAYngRUUD1xXs5mZ_DVb-16" value="`b_1`" style="whiteSpace=wrap;html=1;aspect=fixed;" vertex="1" parent="1">
          <mxGeometry x="113" y="368" width="25" height="25" as="geometry" />
        </mxCell>
        <mxCell id="RAYngRUUD1xXs5mZ_DVb-17" value="`b_2`" style="whiteSpace=wrap;html=1;aspect=fixed;" vertex="1" parent="1">
          <mxGeometry x="146" y="368" width="25" height="25" as="geometry" />
        </mxCell>
        <mxCell id="RAYngRUUD1xXs5mZ_DVb-19" value="`b_3`" style="whiteSpace=wrap;html=1;aspect=fixed;" vertex="1" parent="1">
          <mxGeometry x="250" y="368" width="25" height="25" as="geometry" />
        </mxCell>
        <mxCell id="RAYngRUUD1xXs5mZ_DVb-20" value="`b_4`" style="whiteSpace=wrap;html=1;aspect=fixed;" vertex="1" parent="1">
          <mxGeometry x="284" y="368" width="25" height="25" as="geometry" />
        </mxCell>
        <mxCell id="RAYngRUUD1xXs5mZ_DVb-21" value="`a_6`" style="ellipse;whiteSpace=wrap;html=1;aspect=fixed;" vertex="1" parent="1">
          <mxGeometry x="345" y="335" width="30" height="30" as="geometry" />
        </mxCell>
        <mxCell id="RAYngRUUD1xXs5mZ_DVb-22" value="" style="triangle;whiteSpace=wrap;html=1;rotation=-90;" vertex="1" parent="1">
          <mxGeometry x="388" y="393" width="25" height="30" as="geometry" />
        </mxCell>
        <mxCell id="RAYngRUUD1xXs5mZ_DVb-24" value="`c_1`" style="text;html=1;align=center;verticalAlign=middle;resizable=0;points=[];autosize=1;strokeColor=none;fillColor=none;" vertex="1" parent="1">
          <mxGeometry x="378" y="397" width="45" height="26" as="geometry" />
        </mxCell>
        <mxCell id="RAYngRUUD1xXs5mZ_DVb-25" value="" style="shape=table;startSize=0;container=1;collapsible=0;childLayout=tableLayout;" vertex="1" parent="1">
          <mxGeometry x="13" y="482" width="600" height="117.25" as="geometry" />
        </mxCell>
        <mxCell id="RAYngRUUD1xXs5mZ_DVb-26" value="" style="shape=tableRow;horizontal=0;startSize=0;swimlaneHead=0;swimlaneBody=0;strokeColor=inherit;top=0;left=0;bottom=0;right=0;collapsible=0;dropTarget=0;fillColor=none;points=[[0,0.5],[1,0.5]];portConstraint=eastwest;" vertex="1" parent="RAYngRUUD1xXs5mZ_DVb-25">
          <mxGeometry width="600" height="40" as="geometry" />
        </mxCell>
        <mxCell id="RAYngRUUD1xXs5mZ_DVb-27" value="Event" style="shape=partialRectangle;html=1;whiteSpace=wrap;connectable=0;strokeColor=inherit;overflow=hidden;fillColor=none;top=0;left=0;bottom=0;right=0;pointerEvents=1;" vertex="1" parent="RAYngRUUD1xXs5mZ_DVb-26">
          <mxGeometry width="60" height="40" as="geometry">
            <mxRectangle width="60" height="40" as="alternateBounds" />
          </mxGeometry>
        </mxCell>
        <mxCell id="RAYngRUUD1xXs5mZ_DVb-28" value="`a_1`" style="shape=partialRectangle;html=1;whiteSpace=wrap;connectable=0;strokeColor=inherit;overflow=hidden;fillColor=none;top=0;left=0;bottom=0;right=0;pointerEvents=1;" vertex="1" parent="RAYngRUUD1xXs5mZ_DVb-26">
          <mxGeometry x="60" width="60" height="40" as="geometry">
            <mxRectangle width="60" height="40" as="alternateBounds" />
          </mxGeometry>
        </mxCell>
        <mxCell id="RAYngRUUD1xXs5mZ_DVb-29" value="`a_2`" style="shape=partialRectangle;html=1;whiteSpace=wrap;connectable=0;strokeColor=inherit;overflow=hidden;fillColor=none;top=0;left=0;bottom=0;right=0;pointerEvents=1;" vertex="1" parent="RAYngRUUD1xXs5mZ_DVb-26">
          <mxGeometry x="120" width="60" height="40" as="geometry">
            <mxRectangle width="60" height="40" as="alternateBounds" />
          </mxGeometry>
        </mxCell>
        <mxCell id="RAYngRUUD1xXs5mZ_DVb-30" value="`b_3`" style="shape=partialRectangle;html=1;whiteSpace=wrap;connectable=0;strokeColor=inherit;overflow=hidden;fillColor=none;top=0;left=0;bottom=0;right=0;pointerEvents=1;" vertex="1" parent="RAYngRUUD1xXs5mZ_DVb-26">
          <mxGeometry x="180" width="60" height="40" as="geometry">
            <mxRectangle width="60" height="40" as="alternateBounds" />
          </mxGeometry>
        </mxCell>
        <mxCell id="RAYngRUUD1xXs5mZ_DVb-31" value="`b_4`" style="shape=partialRectangle;html=1;whiteSpace=wrap;connectable=0;strokeColor=inherit;overflow=hidden;fillColor=none;top=0;left=0;bottom=0;right=0;pointerEvents=1;" vertex="1" parent="RAYngRUUD1xXs5mZ_DVb-26">
          <mxGeometry x="240" width="60" height="40" as="geometry">
            <mxRectangle width="60" height="40" as="alternateBounds" />
          </mxGeometry>
        </mxCell>
        <mxCell id="RAYngRUUD1xXs5mZ_DVb-32" value="`a_5`" style="shape=partialRectangle;html=1;whiteSpace=wrap;connectable=0;strokeColor=inherit;overflow=hidden;fillColor=none;top=0;left=0;bottom=0;right=0;pointerEvents=1;" vertex="1" parent="RAYngRUUD1xXs5mZ_DVb-26">
          <mxGeometry x="300" width="60" height="40" as="geometry">
            <mxRectangle width="60" height="40" as="alternateBounds" />
          </mxGeometry>
        </mxCell>
        <mxCell id="RAYngRUUD1xXs5mZ_DVb-33" value="`a_6`" style="shape=partialRectangle;html=1;whiteSpace=wrap;connectable=0;strokeColor=inherit;overflow=hidden;fillColor=none;top=0;left=0;bottom=0;right=0;pointerEvents=1;" vertex="1" parent="RAYngRUUD1xXs5mZ_DVb-26">
          <mxGeometry x="360" width="60" height="40" as="geometry">
            <mxRectangle width="60" height="40" as="alternateBounds" />
          </mxGeometry>
        </mxCell>
        <mxCell id="RAYngRUUD1xXs5mZ_DVb-34" value="`b_7`" style="shape=partialRectangle;html=1;whiteSpace=wrap;connectable=0;strokeColor=inherit;overflow=hidden;fillColor=none;top=0;left=0;bottom=0;right=0;pointerEvents=1;" vertex="1" parent="RAYngRUUD1xXs5mZ_DVb-26">
          <mxGeometry x="420" width="60" height="40" as="geometry">
            <mxRectangle width="60" height="40" as="alternateBounds" />
          </mxGeometry>
        </mxCell>
        <mxCell id="RAYngRUUD1xXs5mZ_DVb-35" value="`b_8`" style="shape=partialRectangle;html=1;whiteSpace=wrap;connectable=0;strokeColor=inherit;overflow=hidden;fillColor=none;top=0;left=0;bottom=0;right=0;pointerEvents=1;" vertex="1" parent="RAYngRUUD1xXs5mZ_DVb-26">
          <mxGeometry x="480" width="60" height="40" as="geometry">
            <mxRectangle width="60" height="40" as="alternateBounds" />
          </mxGeometry>
        </mxCell>
        <mxCell id="RAYngRUUD1xXs5mZ_DVb-36" value="`c_9`" style="shape=partialRectangle;html=1;whiteSpace=wrap;connectable=0;strokeColor=inherit;overflow=hidden;fillColor=none;top=0;left=0;bottom=0;right=0;pointerEvents=1;" vertex="1" parent="RAYngRUUD1xXs5mZ_DVb-26">
          <mxGeometry x="540" width="60" height="40" as="geometry">
            <mxRectangle width="60" height="40" as="alternateBounds" />
          </mxGeometry>
        </mxCell>
        <mxCell id="RAYngRUUD1xXs5mZ_DVb-37" value="" style="shape=tableRow;horizontal=0;startSize=0;swimlaneHead=0;swimlaneBody=0;strokeColor=inherit;top=0;left=0;bottom=0;right=0;collapsible=0;dropTarget=0;fillColor=none;points=[[0,0.5],[1,0.5]];portConstraint=eastwest;" vertex="1" parent="RAYngRUUD1xXs5mZ_DVb-25">
          <mxGeometry y="40" width="600" height="37" as="geometry" />
        </mxCell>
        <mxCell id="RAYngRUUD1xXs5mZ_DVb-38" value="Val" style="shape=partialRectangle;html=1;whiteSpace=wrap;connectable=0;strokeColor=inherit;overflow=hidden;fillColor=none;top=0;left=0;bottom=0;right=0;pointerEvents=1;" vertex="1" parent="RAYngRUUD1xXs5mZ_DVb-37">
          <mxGeometry width="60" height="37" as="geometry">
            <mxRectangle width="60" height="37" as="alternateBounds" />
          </mxGeometry>
        </mxCell>
        <mxCell id="RAYngRUUD1xXs5mZ_DVb-39" value="10" style="shape=partialRectangle;html=1;whiteSpace=wrap;connectable=0;strokeColor=inherit;overflow=hidden;fillColor=none;top=0;left=0;bottom=0;right=0;pointerEvents=1;" vertex="1" parent="RAYngRUUD1xXs5mZ_DVb-37">
          <mxGeometry x="60" width="60" height="37" as="geometry">
            <mxRectangle width="60" height="37" as="alternateBounds" />
          </mxGeometry>
        </mxCell>
        <mxCell id="RAYngRUUD1xXs5mZ_DVb-40" value="25" style="shape=partialRectangle;html=1;whiteSpace=wrap;connectable=0;strokeColor=inherit;overflow=hidden;fillColor=none;top=0;left=0;bottom=0;right=0;pointerEvents=1;" vertex="1" parent="RAYngRUUD1xXs5mZ_DVb-37">
          <mxGeometry x="120" width="60" height="37" as="geometry">
            <mxRectangle width="60" height="37" as="alternateBounds" />
          </mxGeometry>
        </mxCell>
        <mxCell id="RAYngRUUD1xXs5mZ_DVb-41" value="16" style="shape=partialRectangle;html=1;whiteSpace=wrap;connectable=0;strokeColor=inherit;overflow=hidden;fillColor=none;top=0;left=0;bottom=0;right=0;pointerEvents=1;" vertex="1" parent="RAYngRUUD1xXs5mZ_DVb-37">
          <mxGeometry x="180" width="60" height="37" as="geometry">
            <mxRectangle width="60" height="37" as="alternateBounds" />
          </mxGeometry>
        </mxCell>
        <mxCell id="RAYngRUUD1xXs5mZ_DVb-42" value="9" style="shape=partialRectangle;html=1;whiteSpace=wrap;connectable=0;strokeColor=inherit;overflow=hidden;fillColor=none;top=0;left=0;bottom=0;right=0;pointerEvents=1;" vertex="1" parent="RAYngRUUD1xXs5mZ_DVb-37">
          <mxGeometry x="240" width="60" height="37" as="geometry">
            <mxRectangle width="60" height="37" as="alternateBounds" />
          </mxGeometry>
        </mxCell>
        <mxCell id="RAYngRUUD1xXs5mZ_DVb-43" value="15" style="shape=partialRectangle;html=1;whiteSpace=wrap;connectable=0;strokeColor=inherit;overflow=hidden;fillColor=none;top=0;left=0;bottom=0;right=0;pointerEvents=1;" vertex="1" parent="RAYngRUUD1xXs5mZ_DVb-37">
          <mxGeometry x="300" width="60" height="37" as="geometry">
            <mxRectangle width="60" height="37" as="alternateBounds" />
          </mxGeometry>
        </mxCell>
        <mxCell id="RAYngRUUD1xXs5mZ_DVb-44" value="20" style="shape=partialRectangle;html=1;whiteSpace=wrap;connectable=0;strokeColor=inherit;overflow=hidden;fillColor=none;top=0;left=0;bottom=0;right=0;pointerEvents=1;" vertex="1" parent="RAYngRUUD1xXs5mZ_DVb-37">
          <mxGeometry x="360" width="60" height="37" as="geometry">
            <mxRectangle width="60" height="37" as="alternateBounds" />
          </mxGeometry>
        </mxCell>
        <mxCell id="RAYngRUUD1xXs5mZ_DVb-45" value="9" style="shape=partialRectangle;html=1;whiteSpace=wrap;connectable=0;strokeColor=inherit;overflow=hidden;fillColor=none;top=0;left=0;bottom=0;right=0;pointerEvents=1;" vertex="1" parent="RAYngRUUD1xXs5mZ_DVb-37">
          <mxGeometry x="420" width="60" height="37" as="geometry">
            <mxRectangle width="60" height="37" as="alternateBounds" />
          </mxGeometry>
        </mxCell>
        <mxCell id="RAYngRUUD1xXs5mZ_DVb-46" value="4" style="shape=partialRectangle;html=1;whiteSpace=wrap;connectable=0;strokeColor=inherit;overflow=hidden;fillColor=none;top=0;left=0;bottom=0;right=0;pointerEvents=1;" vertex="1" parent="RAYngRUUD1xXs5mZ_DVb-37">
          <mxGeometry x="480" width="60" height="37" as="geometry">
            <mxRectangle width="60" height="37" as="alternateBounds" />
          </mxGeometry>
        </mxCell>
        <mxCell id="RAYngRUUD1xXs5mZ_DVb-47" value="10" style="shape=partialRectangle;html=1;whiteSpace=wrap;connectable=0;strokeColor=inherit;overflow=hidden;fillColor=none;top=0;left=0;bottom=0;right=0;pointerEvents=1;" vertex="1" parent="RAYngRUUD1xXs5mZ_DVb-37">
          <mxGeometry x="540" width="60" height="37" as="geometry">
            <mxRectangle width="60" height="37" as="alternateBounds" />
          </mxGeometry>
        </mxCell>
        <mxCell id="RAYngRUUD1xXs5mZ_DVb-48" value="" style="shape=tableRow;horizontal=0;startSize=0;swimlaneHead=0;swimlaneBody=0;strokeColor=inherit;top=0;left=0;bottom=0;right=0;collapsible=0;dropTarget=0;fillColor=none;points=[[0,0.5],[1,0.5]];portConstraint=eastwest;" vertex="1" parent="RAYngRUUD1xXs5mZ_DVb-25">
          <mxGeometry y="77" width="600" height="40" as="geometry" />
        </mxCell>
        <mxCell id="RAYngRUUD1xXs5mZ_DVb-49" value="timestamp" style="shape=partialRectangle;html=1;whiteSpace=wrap;connectable=0;strokeColor=inherit;overflow=hidden;fillColor=none;top=0;left=0;bottom=0;right=0;pointerEvents=1;" vertex="1" parent="RAYngRUUD1xXs5mZ_DVb-48">
          <mxGeometry width="60" height="40" as="geometry">
            <mxRectangle width="60" height="40" as="alternateBounds" />
          </mxGeometry>
        </mxCell>
        <mxCell id="RAYngRUUD1xXs5mZ_DVb-50" value="0" style="shape=partialRectangle;html=1;whiteSpace=wrap;connectable=0;strokeColor=inherit;overflow=hidden;fillColor=none;top=0;left=0;bottom=0;right=0;pointerEvents=1;" vertex="1" parent="RAYngRUUD1xXs5mZ_DVb-48">
          <mxGeometry x="60" width="60" height="40" as="geometry">
            <mxRectangle width="60" height="40" as="alternateBounds" />
          </mxGeometry>
        </mxCell>
        <mxCell id="RAYngRUUD1xXs5mZ_DVb-51" value="1" style="shape=partialRectangle;html=1;whiteSpace=wrap;connectable=0;strokeColor=inherit;overflow=hidden;fillColor=none;top=0;left=0;bottom=0;right=0;pointerEvents=1;" vertex="1" parent="RAYngRUUD1xXs5mZ_DVb-48">
          <mxGeometry x="120" width="60" height="40" as="geometry">
            <mxRectangle width="60" height="40" as="alternateBounds" />
          </mxGeometry>
        </mxCell>
        <mxCell id="RAYngRUUD1xXs5mZ_DVb-52" value="2" style="shape=partialRectangle;html=1;whiteSpace=wrap;connectable=0;strokeColor=inherit;overflow=hidden;fillColor=none;top=0;left=0;bottom=0;right=0;pointerEvents=1;" vertex="1" parent="RAYngRUUD1xXs5mZ_DVb-48">
          <mxGeometry x="180" width="60" height="40" as="geometry">
            <mxRectangle width="60" height="40" as="alternateBounds" />
          </mxGeometry>
        </mxCell>
        <mxCell id="RAYngRUUD1xXs5mZ_DVb-53" value="3" style="shape=partialRectangle;html=1;whiteSpace=wrap;connectable=0;strokeColor=inherit;overflow=hidden;fillColor=none;top=0;left=0;bottom=0;right=0;pointerEvents=1;" vertex="1" parent="RAYngRUUD1xXs5mZ_DVb-48">
          <mxGeometry x="240" width="60" height="40" as="geometry">
            <mxRectangle width="60" height="40" as="alternateBounds" />
          </mxGeometry>
        </mxCell>
        <mxCell id="RAYngRUUD1xXs5mZ_DVb-54" value="4" style="shape=partialRectangle;html=1;whiteSpace=wrap;connectable=0;strokeColor=inherit;overflow=hidden;fillColor=none;top=0;left=0;bottom=0;right=0;pointerEvents=1;" vertex="1" parent="RAYngRUUD1xXs5mZ_DVb-48">
          <mxGeometry x="300" width="60" height="40" as="geometry">
            <mxRectangle width="60" height="40" as="alternateBounds" />
          </mxGeometry>
        </mxCell>
        <mxCell id="RAYngRUUD1xXs5mZ_DVb-55" value="5" style="shape=partialRectangle;html=1;whiteSpace=wrap;connectable=0;strokeColor=inherit;overflow=hidden;fillColor=none;top=0;left=0;bottom=0;right=0;pointerEvents=1;" vertex="1" parent="RAYngRUUD1xXs5mZ_DVb-48">
          <mxGeometry x="360" width="60" height="40" as="geometry">
            <mxRectangle width="60" height="40" as="alternateBounds" />
          </mxGeometry>
        </mxCell>
        <mxCell id="RAYngRUUD1xXs5mZ_DVb-56" value="6" style="shape=partialRectangle;html=1;whiteSpace=wrap;connectable=0;strokeColor=inherit;overflow=hidden;fillColor=none;top=0;left=0;bottom=0;right=0;pointerEvents=1;" vertex="1" parent="RAYngRUUD1xXs5mZ_DVb-48">
          <mxGeometry x="420" width="60" height="40" as="geometry">
            <mxRectangle width="60" height="40" as="alternateBounds" />
          </mxGeometry>
        </mxCell>
        <mxCell id="RAYngRUUD1xXs5mZ_DVb-57" value="7" style="shape=partialRectangle;html=1;whiteSpace=wrap;connectable=0;strokeColor=inherit;overflow=hidden;fillColor=none;top=0;left=0;bottom=0;right=0;pointerEvents=1;" vertex="1" parent="RAYngRUUD1xXs5mZ_DVb-48">
          <mxGeometry x="480" width="60" height="40" as="geometry">
            <mxRectangle width="60" height="40" as="alternateBounds" />
          </mxGeometry>
        </mxCell>
        <mxCell id="RAYngRUUD1xXs5mZ_DVb-58" value="8" style="shape=partialRectangle;html=1;whiteSpace=wrap;connectable=0;strokeColor=inherit;overflow=hidden;fillColor=none;top=0;left=0;bottom=0;right=0;pointerEvents=1;" vertex="1" parent="RAYngRUUD1xXs5mZ_DVb-48">
          <mxGeometry x="540" width="60" height="40" as="geometry">
            <mxRectangle width="60" height="40" as="alternateBounds" />
          </mxGeometry>
        </mxCell>
      </root>
    </mxGraphModel>
  </diagram>
  <diagram id="P3V6StR4U7ePxGz_u0RL" name="第 2 页">
    <mxGraphModel dx="2020" dy="674" grid="0" gridSize="10" guides="1" tooltips="1" connect="1" arrows="1" fold="1" page="0" pageScale="1" pageWidth="1200" pageHeight="1920" math="1" shadow="0">
      <root>
        <mxCell id="0" />
        <mxCell id="1" parent="0" />
        <mxCell id="Zgb6_lK5QYEBWif7ZU31-2" value="" style="shape=image;verticalLabelPosition=bottom;labelBackgroundColor=default;verticalAlign=top;aspect=fixed;imageAspect=0;image=data:image/jpeg,/9j/4QFWRXhpZgAATU0AKgAAAAgACgEGAAMAAAABAAIAAAESAAMAAAABAAEAAAEaAAUAAAABAAAAhgEbAAUAAAABAAAAjgEoAAMAAAABAAIAAAExAAIAAAAeAAAAlgEyAAIAAAAUAAAAtAE7AAIAAAAJAAAAyAITAAMAAAABAAEAAIdpAAQAAAABAAAA0gAAAAAAAABxAAAAAQAAAHEAAAABQWRvYmUgUGhvdG9zaG9wIENTNiAoV2luZG93cykAMjAxODowNTowMyAxMjo0NTo0NQBHcmFwaGljcwAAAAiQAAAHAAAABDAyMjGQBAACAAAAFAAAATiRAQAHAAAABAECAwCgAAAHAAAABDAxMDCgAQADAAAAAf//AACgAgAEAAAAAQAACaWgAwAEAAAAAQAACjSkBgADAAAAAQAAAAAAAAAAMjAxODowNTowMyAwNjozNzo1NQAAAP/hA3RodHRwOi8vbnMuYWRvYmUuY29tL3hhcC8xLjAvADx4OnhtcG1ldGEgeG1sbnM6eD0iYWRvYmU6bnM6bWV0YS8iIHg6eG1wdGs9IlhNUCBDb3JlIDYuMC4wIj4KICAgPHJkZjpSREYgeG1sbnM6cmRmPSJodHRwOi8vd3d3LnczLm9yZy8xOTk5LzAyLzIyLXJkZi1zeW50YXgtbnMjIj4KICAgICAgPHJkZjpEZXNjcmlwdGlvbiByZGY6YWJvdXQ9IiIKICAgICAgICAgICAgeG1sbnM6ZGM9Imh0dHA6Ly9wdXJsLm9yZy9kYy9lbGVtZW50cy8xLjEvIgogICAgICAgICAgICB4bWxuczp4bXA9Imh0dHA6Ly9ucy5hZG9iZS5jb20veGFwLzEuMC8iPgogICAgICAgICA8ZGM6Y3JlYXRvcj4KICAgICAgICAgICAgPHJkZjpTZXE+CiAgICAgICAgICAgICAgIDxyZGY6bGk+R3JhcGhpY3M8L3JkZjpsaT4KICAgICAgICAgICAgPC9yZGY6U2VxPgogICAgICAgICA8L2RjOmNyZWF0b3I+CiAgICAgICAgIDxkYzp0aXRsZT4KICAgICAgICAgICAgPHJkZjpBbHQ+CiAgICAgICAgICAgICAgIDxyZGY6bGkgeG1sOmxhbmc9IngtZGVmYXVsdCI+TkVXIExOR1JvbGxvdmVyS3V0c2lsYVdvb2QyME1hcjIwMTgtUmV2aXNpb25EV19WMjwvcmRmOmxpPgogICAgICAgICAgICA8L3JkZjpBbHQ+CiAgICAgICAgIDwvZGM6dGl0bGU+CiAgICAgICAgIDx4bXA6Q3JlYXRlRGF0ZT4yMDE4LTA1LTAzVDA2OjM3OjU1KzAwOjAwPC94bXA6Q3JlYXRlRGF0ZT4KICAgICAgICAgPHhtcDpDcmVhdG9yVG9vbD5BZG9iZSBQaG90b3Nob3AgQ1M2IChXaW5kb3dzKTwveG1wOkNyZWF0b3JUb29sPgogICAgICAgICA8eG1wOk1vZGlmeURhdGU+MjAxOC0wNS0wM1QxMjo0NTo0NTwveG1wOk1vZGlmeURhdGU+CiAgICAgIDwvcmRmOkRlc2NyaXB0aW9uPgogICA8L3JkZjpSREY+CjwveDp4bXBtZXRhPgr/4gIoSUNDX1BST0ZJTEUAAQEAAAIYYXBwbAQAAABtbnRyUkdCIFhZWiAH5gABAAEAAAAAAABhY3NwQVBQTAAAAABBUFBMAAAAAAAAAAAAAAAAAAAAAAAA9tYAAQAAAADTLWFwcGzs/aOOOIVHw220vU962hgvAAAAAAAAAAAAAAAAAAAAAAAAAAAAAAAAAAAAAAAAAApkZXNjAAAA/AAAADBjcHJ0AAABLAAAAFB3dHB0AAABfAAAABRyWFlaAAABkAAAABRnWFlaAAABpAAAABRiWFlaAAABuAAAABRyVFJDAAABzAAAACBjaGFkAAAB7AAAACxiVFJDAAABzAAAACBnVFJDAAABzAAAACBtbHVjAAAAAAAAAAEAAAAMZW5VUwAAABQAAAAcAEQAaQBzAHAAbABhAHkAIABQADNtbHVjAAAAAAAAAAEAAAAMZW5VUwAAADQAAAAcAEMAbwBwAHkAcgBpAGcAaAB0ACAAQQBwAHAAbABlACAASQBuAGMALgAsACAAMgAwADIAMlhZWiAAAAAAAAD21QABAAAAANMsWFlaIAAAAAAAAIPfAAA9v////7tYWVogAAAAAAAASr8AALE3AAAKuVhZWiAAAAAAAAAoOAAAEQsAAMi5cGFyYQAAAAAAAwAAAAJmZgAA8qcAAA1ZAAAT0AAACltzZjMyAAAAAAABDEIAAAXe///zJgAAB5MAAP2Q///7ov///aMAAAPcAADAbv/tAKhQaG90b3Nob3AgMy4wADhCSU0EBAAAAAAAbxwBWgADGyVHHAIAAAIAAhwCPwALMDYzNzU1KzAwMDAcAj4ACDIwMTgwNTAzHAIFADFORVcgTE5HUm9sbG92ZXJLdXRzaWxhV29vZDIwTWFyMjAxOC1SZXZpc2lvbkRXX1YyHAJQAAhHcmFwaGljcwA4QklNBCUAAAAAABAQ2hfRejzXOE2CEu+VbcJn/9sAhAABAQEBAQECAQECAwICAgMEAwMDAwQFBAQEBAQFBgUFBQUFBQYGBgYGBgYGBwcHBwcHCAgICAgJCQkJCQkJCQkJAQEBAQICAgQCAgQJBgUGCQkJCQkJCQkJCQkJCQkJCQkJCQkJCQkJCQkJCQkJCQkJCQkJCQkJCQkJCQkJCQkJCQn/3QAEACP/wAARCADqAi0DASIAAhEBAxEB/8QBogAAAQUBAQEBAQEAAAAAAAAAAAECAwQFBgcICQoLEAACAQMDAgQDBQUEBAAAAX0BAgMABBEFEiExQQYTUWEHInEUMoGRoQgjQrHBFVLR8CQzYnKCCQoWFxgZGiUmJygpKjQ1Njc4OTpDREVGR0hJSlNUVVZXWFlaY2RlZmdoaWpzdHV2d3h5eoOEhYaHiImKkpOUlZaXmJmaoqOkpaanqKmqsrO0tba3uLm6wsPExcbHyMnK0tPU1dbX2Nna4eLj5OXm5+jp6vHy8/T19vf4+foBAAMBAQEBAQEBAQEAAAAAAAABAgMEBQYHCAkKCxEAAgECBAQDBAcFBAQAAQJ3AAECAxEEBSExBhJBUQdhcRMiMoEIFEKRobHBCSMzUvAVYnLRChYkNOEl8RcYGRomJygpKjU2Nzg5OkNERUZHSElKU1RVVldYWVpjZGVmZ2hpanN0dXZ3eHl6goOEhYaHiImKkpOUlZaXmJmaoqOkpaanqKmqsrO0tba3uLm6wsPExcbHyMnK0tPU1dbX2Nna4uPk5ebn6Onq8vP09fb3+Pn6/9oADAMBAAIRAxEAPwD+sD/glL/yQbx7/wBle+J//qY6rX6cV+Y//BKX/kg3j3/sr3xP/wDUx1Wv04oAKKKKACiiigAooooA/GH9rj4DfCz9pb/gqX8JfhL8btNfW/DifC/xrqosftVzbxG8ttY8MwQzN9mliLMkc8qrknAc17p/w6B/4J1f9E5j/wDBnqv/AMmVmfEP/lMj8J/+yP8Ajz/0++FK/T2gD81f+HQP/BOr/onMf/gz1X/5Mo/4dA/8E6v+icx/+DPVf/kyv0qooA/NX/h0D/wTq/6JzH/4M9V/+TKP+HQP/BOr/onMf/gz1X/5Mr9KqKAPzV/4dA/8E6v+icx/+DPVf/kyj/h0D/wTq/6JzH/4M9V/+TK/SqigD81f+HQP/BOr/onMf/gz1X/5Mo/4dA/8E6v+icx/+DPVf/kyv0qooA/NX/h0D/wTq/6JzH/4M9V/+TKP+HQP/BOr/onMf/gz1X/5Mr9KqKAPyb8Kf8ElP+CfV54k8TWl18PUeK01CKOFf7S1P5ENlbOQP9L/ALzsfxruv+HQP/BOr/onMf8A4M9V/wDkyvuXwZ/yNPi3/sJw/wDpvtK9FoA/NX/h0D/wTq/6JzH/AODPVf8A5Mo/4dA/8E6v+icx/wDgz1X/AOTK/SqigD81f+HQP/BOr/onMf8A4M9V/wDkyj/h0D/wTq/6JzH/AODPVf8A5Mr9KqKAPzV/4dA/8E6v+icx/wDgz1X/AOTKP+HQP/BOr/onMf8A4M9V/wDkyv0qooA/NX/h0D/wTq/6JzH/AODPVf8A5Mo/4dA/8E6v+icx/wDgz1X/AOTK/SqigD81f+HQP/BOr/onMf8A4M9V/wDkyuN8cf8ABJP/AIJ7aZo0E1j8PEjdtQ06Ekalqf3JLyFHX/j76FWI/Gv1crz34jkrolmP+orpf/pbDQB8L/8ADoH/AIJ1f9E5j/8ABnqv/wAmUf8ADoH/AIJ1f9E5j/8ABnqv/wAmV+lVFAH5q/8ADoH/AIJ1f9E5j/8ABnqv/wAmUf8ADoH/AIJ1f9E5j/8ABnqv/wAmV+lVFAH5q/8ADoH/AIJ1f9E5j/8ABnqv/wAmUf8ADoH/AIJ1f9E5j/8ABnqv/wAmV+lVFAH5q/8ADoH/AIJ1f9E5j/8ABnqv/wAmUf8ADoH/AIJ1f9E5j/8ABnqv/wAmV+lVFAH5q/8ADoH/AIJ1f9E5j/8ABnqv/wAmUf8ADoH/AIJ1f9E5j/8ABnqv/wAmV+lVFAH5q/8ADoH/AIJ1f9E5j/8ABnqv/wAmVxHg/wD4JK/8E+dQ1HX47v4eI62mpGCEHUtT+SP7PA+0f6X03E1+sNee+BlxqXiQjvqrf+k1uP6UAfC//DoH/gnV/wBE5j/8Geq//JlH/DoH/gnV/wBE5j/8Geq//JlfpVRQB+av/DoH/gnV/wBE5j/8Geq//JlH/DoH/gnV/wBE5j/8Geq//JlfpVRQB+av/DoH/gnV/wBE5j/8Geq//JlYGs/8Eq/+CYvhz7J/wkHgizsft9zHZ23n6xqUfnXEv+rhj3Xo3SPj5UHJ7Cv1Jr5k/aJ0TwFrLeBx460rVdV+y+LdMudP/sqMv9nvk8zyLi62kYtI8nzWOVHGRXTg6MalWMJXt5b/AKGtGClJRZ84f8Ogf+CdX/ROY/8AwZ6r/wDJlH/DoH/gnV/0TmP/AMGeq/8AyZX6VUVzGR+av/DoH/gnV/0TmP8A8Geq/wDyZR/w6B/4J1f9E5j/APBnqv8A8mV+lVFAH5IfEb/gkz/wT70mx0qTTvh6kRn1awgfGp6p80ck6hl/4++hFei/8Ogf+CdX/ROY/wDwZ6r/APJlfaHxbO3T9C99c00f+R1/wr1qgD81f+HQP/BOr/onMf8A4M9V/wDkyj/h0D/wTq/6JzH/AODPVf8A5Mr9KqKAPzV/4dA/8E6v+icx/wDgz1X/AOTKP+HQP/BOr/onMf8A4M9V/wDkyv0qooA/EDUv2QP2ev2UP+Cjf7PUv7P2gt4d/t+38YRagkd5eTpcJb6bC8IZLiaVf3bMSuAMZNft/X5r/tNf8pFf2Yf+ufjb/wBNdvX6UUAFFFFABRRRQAUUUUAFflx4A/5Sm/Hb/sQfhz/6W+K6/Uevy48Af8pTfjt/2IPw5/8AS3xXQB//0P6wP+CUv/JBvHv/AGV74n/+pjqtfpxX5j/8Epf+SDePf+yvfE//ANTHVa/TigAooooAKiMqKQp6ngCpa/jP/a1/ar/aU8Q/8F3fgrqvjXwP490rw74M8Y+IfCngzSf7GuF0fV0fw7eQ3GuC54W6Mt3KhbZlbTTrYz5LSOAAf2UrcRMSo6jt6U8SIelf5437EfxR1E/A7x5/wsjxbo+m/EL4o/Bnx1c+NfFtrd67d6n4bv7fWFsbiTxXpsE955k4E5NpJHZwPapEYUVoyzV+/n/BBRPhv8IrH46fAb4dWHhfW7D4faloYfxj4DOozab4je80hLohYbu91L/TLPd5U4guMEuuYozgEA/QT4h/8pkfhP8A9kf8ef8Ap98KV+ntfjv4++KGlzf8FfPhZqy6VrASL4SeOYTGdOuRKS+t+FiCsezcyjaQzAYXjOMiv0wHxe0f/oD67/4Krv8A+N0AesUV5R/wt3SP+gPrv/gqu/8A43Sj4u6Mf+YRrg/7hV5/8aoA9Wory3/hbOjf9ArW/wDwVXn/AMaoX4taK3/MK1v/AMFV5/8AGqAPUqK8x/4Wro//AEC9a/8ABXd//GqP+Fq6L/0DNZ/8Fd3/APGqAPTqK8xHxV0U/wDMM1r/AMFV5/8AGqnX4naKwz/Z+rj/ALhd5/8AGqAPR6K87/4WZov/AD4at/4LLz/4zSH4m6IB/wAeGrf+Cy8/+M0AJ4N48U+LT/1E4f00+0r0avn/AMI/EbRl8QeJpPseqfvNRiYf8S28/wCfC1GCPJ46d8V33/Cy9C/589V/8Fl7/wDGaAPQqK89/wCFl6F/z56r/wCCy9/+M07/AIWTof8Az56r/wCCu9/+M0AegUV59/wsrQv+fPVf/BXe/wDxmnj4jaIf+XPVP/BZe/8AxmgDvqK4H/hY2if8+eqf+Cy9/wDjNM/4WVoX/Pnqv/grvf8A4zQB6DRXBf8ACxtD/wCfTVP/AAWXv/xmj/hYuif8+mp/+C28/wDjNAHe15t8T22aLp/vrGlj/wAnYavf8LD0T/n11P8A8Ft5/wDGa81+J/j7RZNG0xEttRH/ABONMbnTrwcLeResPXjgdfagD6ForhB8Q9DP/LrqY/7hl7/8Yp3/AAsLQv8An21P/wAFl9/8YoA7miuE/wCFi6B/z7an/wCCy+/+MUf8LE0H/n31P/wWX3/xigDu6K4T/hYugf8APtqf/gsvv/jFH/CxdA/59tT/APBZff8AxigDu6K4cfEHQiMi31L/AMFt7/8AGaf/AMJ7on/PvqP/AILb3/4zQB2tFcV/wnuif8++o/8Agtvf/jNN/wCFgaH/AM++o/8Agtvf/jNAHb1wHgcY1DxF/wBhVv8A0ngqf/hYOh/8+2pf+Cy9/wDjFcH4N8f6HDqGv77fUvn1NiMaben/AJYQjtBx0oA90orgf+FkaB/z66p/4Kr/AP8AjFH/AAsjQP8An11T/wAFV/8A/GKAO+orz9viV4dX/l21X/wVX/8A8j1F/wALQ8N/8+urf+CjUP8A5HoA9Fr4T/bY+M/jL4Lx/Cu48HXpsV8S/EXQtAvyI43EtjfGYTRHerbN2xfmGHHAVgTX1J/wtTwz/wA+urf+CjUf/kevGfiv8Qtdv4tBi8A6PHqSR6zaS6lDrWk6sgWxjbdJLZmKykxeQtskhDpsYqRuj++vqZLXpUsVCdaClHs9Ft6M6sDKMaqclddj6uorzP8A4Wz4X/59NY/8E2pf/I1NPxb8LL/y6az/AOCXU/8A5GryzlPTqK8vPxd8Kj/l01r/AMEmp/8AyLSf8Le8K/8APnrX/gk1P/5FoAo/GEn7H4fA/wCg/pv/AKOFev18pfFz4reGLq18PCC21f5Ne05zu0fUV4WXoM2wyfQDn2r1r/hcPhP/AJ9Na/8ABJqn/wAi0Aep0V5SfjJ4RHW01v8A8Eeqf/ItJ/wubwf/AM+mt/8Agi1X/wCRKAPV6K8l/wCF0+Dv+fTXP/BFqv8A8iUv/C6PB/8Az565/wCCLVf/AJEoA+MP2mv+Uiv7MP8A1z8bf+mu3r9JWkRRuJ4r8j/2kvix4Wuf+Cg/7NOoR22riO3j8ablbR9SVzu0y3A2Rm2DvjvsU7e+K/S+08deH/EOhajqNpLd6XDZxM0txf2VxYCJdpPmD7ZFECqBTkjIXHOKAO/81OM8Z6UvmLX8Ovx7/aS+Of7GUHxz8L/B/wCNnifxTo/if4XaJ4j8N+KbnxEPE8N/HfeJ7fSNX8T29wpWHQ3t7a92w2lvH9jCRiZHHlbR6Nb/ABE+LjfH9f8Agm7J8XPGUPwhk+Ps3hdvEzeIrr+3TpqeDRrkejjxCZBdqkupHj995xX90rFMqwB/aLvHan1+Vn/BFP4z/FD9oD/gl78JPip8ZtWn13xFf6fdQXOo3TeZPdpZX9zaW88sn8byQQxs8h5cksetfqnQAUUUUAFflx4A/wCUpvx2/wCxB+HP/pb4rr9R6/LjwB/ylN+O3/Yg/Dn/ANLfFdAH/9H+sD/glL/yQbx7/wBle+J//qY6rX6cV+Y//BKX/kg3j3/sr3xP/wDUx1Wv04oAKKKKACud1Pwn4a1nV9P17VtPtbq90l3lsbiaFHltnkQxu0LsC0ZZCUJUjKkqeK6KigDhNN+GPw70TUNW1fRNB06zvNd/5CU8NrDHJecEf6QyoDLwSPn3dTVvwZ4A8D/DjRF8MfD3RrHQtNRmdbTTraK1gDNyxEcKooJPXjmuwooA/ML4hf8AKY34UIf+iQePP/T74T/zx/hj9O9tflx8T9QstP8A+CxHwqu7+VIIk+D/AI6y0hCqM674THU4H+eK/S668RaJYSeTe3UUL+WZdruqny1zlsE/dGOvtSuhpX0Rs7RTN47nFfAVz/wU9/Y5t9Snjj13ULjR7S6NnP4it9H1Kbw/FKrbH36xHbGwVEb5Wk87Yp4LVz9//wAFP/2YvEOnQWnwEvLr4leJr+7lsLDw9oEJe+meEZM7ibykgssFW+2yMIGRlKM2RnheaYZac6+8+kjwbmz1+rTS7uLSXq2rL52sj9Gw8ecf/qqTbX5gaz/wUU1f4eQJ41+PHwd8ZeBPBMZS3vNev47O5WyuWKj99a2NxcTizIbAu9uwMMFB2+5vh18ePg98XJ9QtPhp4hstam0m7uLC7jtZVd4ri02CeNl65iMiBuOCwHXit6GKhU0h0+X4Hm5jkuJwii68VaWzTTWm6vFtXWl10uu6PWsGk7ZFeNap+0V8DNF8Ja3461TxVpsOkeG7m4s9UuWnTZaXFoQJ4pecq8eQWUjhSG+6c14Jd/t6fDO11XyLfw54ovtLvUk/sTVbPSpZrPW5Y9PTUvJ04qd8rSW7HyWZEjmZHSJ3KGug8w+4NtLivnjwv+1f+z74sh1n7D4ltra58NWMGoa1Z3u60u9MgntzdL9tt5gkkDiFWdkdQyhGyBtNb2qftIfATQdH0fxB4h8X6Tplh4gsBqenXF7dRW0VzZlrdBNG0rINm66t17cyoO4oA9pwaMGvHLb9oj4EXdp4p1C28X6Q9v4HJHiCUXkOzTMR+b/pTbsRDywWy2BgH0OPRfC/irw7418O2Pi3wndx6hpmpW8d1a3MJ3RywzIHjdSP4WUgj2oA5/wipHiLxTj/AKCcX/pBaV32DXA+EnH/AAkHig/9ROL9LC0rvPNXOKAHYNMzxmnB1PSvwn/bF/4KNftc/BH49/G3T/gt4V8L654C/Z/8CaL4z8Rx6xJe2ep3wvTqdzdwaddQ+fbbo7KwBiWaBf3p+YlD8oB+7PFGDX52+DP+CqP7D/jDxBdeFx4xGm3VhpU2q3U9/Z3dtp8SWlgmp3tuNRkiFjJd2Nk6z3dtFO8sEeWdQFOPQ/Df/BRr9gnxZ4D1T4o6J8YvCDeG9DvLawv9Tm1e0gtba5vI/Nto5JZpEVTPH80XOJFBKZ2nAB9n4pcV8xeK/wBsf9nTwN4mj8MeL/EKaf8AaF0UWt7LDN/Z93L4huXtNLt7S9CG3uLi4lTiGF2kVGR3VUdWP00JFPSgB2DTqj8xaUOD0oAfXk/xaH/En0jcOut6V+f2uP8Az7V6r5iivJfjBLt0nRR/1HtKH/k3HQB62RS4FLRQA3Box6U6igBuDTqKKAEpaKKACiiigBuDXB+DFxfa+PXU2/8ARENd9XCeDQBfa/j/AKCbf+iIaAO6wPSjA9KWigBMD0paKKAEwK/Mf/gpT8IvjD8WLL4LXXwf0+e+k8LfFPw5rerfZpFjeHS4TNFcykFlLRqJR5gXJ2FuNu6v05r5J/aj8ZfDzwc/gFfH/jnU/Aj6n4t0+y0yXTmCpqF8yTOmm3W6GaM290iOjBwvzbNjo+017/C2KrUcfTqYePNJX0s39l30jrt2/I7cunKNaMoLX0PrPbTsUtFeAcQmPWloooA8Y+MY/wBH8Nhuf+Kg07/0Z/nHpXsoX1rxz4x/6jw3/wBjDp3/AKMr2WgBMUc0tFACc0YFLRQB+av7TQx/wUU/ZhH/AEz8bf8Aprt6/SRog6eW+CDwR7f54r83f2mv+Uiv7MP/AFz8bf8Aprt6/SigD47+Hn/BPr9iH4S2ni3T/hp8KPCuh23jyGS18QQ2el20ceo20xYvbzoI9rQMXYmLHl5J+WqSf8E6v2GI/gEf2W0+FHhkfD03o1I6D/Z8P2P7aG3C52bf9eMD97nfjjO3ivtGigDkfBPgTwf8NfCGmfD74eaXaaJoOi2sVlYadYwpb21tbQqEjhiijCokaKAFVQABwOK6veKfX57f8FLf2iPjr+zR+zVbeOP2b00JvGGseK/C/hixfxLDcT6ZCfEOs2mlGa4jtJreYpGLjd8kgxjp2oA/QQyqMe/TFS1/Mj+yj/wUk/4KZ+K/2yvCXwR/aIvfhJqfhnVfiN4o+HOpJ4RsdYi1aO68OaLcam93GbvUZoUg3xLEd8RIyQQDgj+m6gAr8uPAH/KU347f9iD8Of8A0t8V1+o9flx4A/5Sm/Hb/sQfhz/6W+K6AP/S/rA/4JS/8kG8e/8AZXvif/6mOq1+nFfmP/wSl/5IN49/7K98T/8A1MdVr9OKACim7lBxSbxQA+iiigAooooA/Gf9qj4E/Cb9oT/gq38I/h38aNEg8Q6JH8LfG+oixutxgNxDq/hmCN3QEB9iTybVcFQSGADKpH0H4e/4JW/sUabotzpfivwn/wAJfPc/J9v8R3M+qX0VuvEVrDczuZYraJMIsSMAVGH3HJPL/EP/AJTI/Cf/ALI/48/9PvhSv09rlq4GjOXNOCb9Ee3g+Jsxw9H6vQrzjDspNL5Lp8ji9C8AeEvDPhK18B6Bp1va6NZWy2cNmqAwpAqhBHsIIK7Rgg9e9GjfD7wZ4dukv/D+k2VhPFaxWCSW8EcbraW/+qtwyqCIozykf3V7Cu0orf2aPH9rLVX3OI8c+A9C+IvgnV/h94piE+m65Zz2F1H/AHoLmMxSDp3RiK/PX9lP4YeA/wBo39mTw7ofx00xdQ8WfD6LWfAd1qcTy2t7E9i0uj3rW91CyTxLdQxLJlXB+ZWGHUEfqDX53/s+6mfhJ+1l8U/gT4n/ANGXxfqC+N/DjN/q7m1ltbWz1KOM9PNt7yLfJH123CNzk1x4h8laE++n6r8rfM+iy1Otl+Iwy3jyzXy92VvlJN+Ub9D6T8Nfsufs9+DvGOlfEHwr4P0rT9a0S0NhY3kFuqSQQNBBa4UgAFxb20MAkILiJBGG2ZB938rjHvmnCRT0qSu8+aPIPi38Cfhd8crLS7D4naVHqSaLqMGqWRJZHhuLc8EMhU7JELRTRn5JYXeJwyMVrkfCn7KfwS8K39/qsmlya3dagLuKSbXbqfV3S2vWhee0hN88xhtGa3iYW0e2FSoKqOa+jaKAPGNa+AHwr1/xjovjjUtM3XXh63ubaxgWWVLJEu0EUpayRxbSP5YKI7xsyIzKhUMa43W/2T/hXqPiW98Z6KdT0HU9R1S11m7k0jU76wiur2zQxxPcwW08cUyMhCTRsuyZVQSA7FI+maKAPhTwL8F/2jYL3X7O7+MV7Ncxy3NvLcf2LpSmS4nsLf7Nc7BDhWtMrsQfJJt/eA5NdjqPgL9rTwlbLrHg7xvZ+Lr0WtjZmw16zh0+z8yN4xeX/nafAZ/OkjDFIP8AUBjjAGCPf/CfHiDxP/2Eo/8A0gtK7rHrQB8W2/w2/bC8AaTceEPhz410vxFZmyla11XxfbS3GpxajNeNKTMNPNnbz2kdvJshiVIXQxqGd1bKfAPx+/4JieIf2gfjL4s+I3j3Q/tdt421PRLDxNZWPjvXNM0rxDoGnwNETf6THYywo0JC7LKKbZOHlEtyoJV/3RqPZgUAfzFeNf8AgkenizxZ8SvEuh/D3XPDz/FzTfG1rcwxf8IjeR6Hf6/pzWU17Bft5GqTRXiO4tLYXCxwPI/mhYiqpw/7VP7BGn+KYfFXi7XkufhxrGqt4U8R79Y06/jtNIXw/pEnhyztLLXPDt5NHHexyXLTBFjkjeKV4XhljBkT+qzyz0HrmkEZ74oA/jw+K/7BxbxNok/jPX/BnxSbwt4m+D+jX1lf6RNphmtvC1hqkN8sUcdhNb20t7cXks0Sw5iFurQllJGfqP8A4JPazd+Gfjb4u8YfFrxXqUfgHw/q3ibwl8JNOuItTT7dpU2qy+IL7Uri3ljXDxRXdnp9sZo1KxWjiLiSv6a/K9P8P5UeSOhxj07UAfxAfEPxl/wUQ/aT+F/xw8VaUvxNj8BeNfCd9I9po1xNrLi7l8XWNqo0uSNptqQ6L9pJhsbK28yESKUmmjZl/Ub/AILTfFr4afD/APZ6+F3wd8Ua34tn8T+ILSa20fXpr/UfDuj6fK9gLX+3/FN1o8MBjNoZBNDaJGnmXJ2rEqKzR/t98RP2Vv2evivqOp6x4/8ACWn395rNjFpt9c7DFPc2kFwl1FDLLCUd1jmQPHk/Ic7cBmB427/Yw+Ddz4nl8Qxtq9va3cs1xeaVDqt6mm3cs1kNOLT2ol2EC2BTYu2MsfMZS4VlAPwq8Mf8FKf27fBfxF034JeC77wX490TT/F2o/Diy1TU7fUodUvz4Z8H22u32uX11BO8ALTb4jAlsgaSVRvjCkt+xnwT+PWt/tSfsZ/Bj9pLxJo3/CO3nj2Lwvr0umiTzltjqBguAivtUunzAqSoyMcV0muf8E+v2ZLrRmtPBmiN4T1RNLOj2esaPK0V/Z2rS+cywvL5qHe3yyiRHE0ZMUoeJmQ+S/Fr9kzWvDWi+HvA/gfxtq2m+Cr7XrYalpyzTJdxrJ5FtZwaPd28sA0i1tNpdYraHqFClF3BgD9MN4A5o3CvlmL4ZftN+F1udO8FfELT76wH9mx2K+IdIe8uoIbaLyrzzri2vLT7TLdFVkWRkXy3L5DqVVPP/iQf24PAsNl4y8NX+i+MZItae0Ph+y05tOhn07UZILe2luLua5u5IpNOYvcXE0SlZYN6C33hGAB9zb17dqAw7dq+EPDHxD/b0sZrfxR4/wDh9od5p97Zt5mjaNqgOoWF1b2Pmktc3XlW1wl1eB7aNUKeSvlSOzBpfK6nSviV+1npOuofF3w8t9Ustde3ezi0m/tlk0RRbD7VFqc11LGtwBcD9zNZoxZXKtCnlh5AD7GDA9KXI6V8EXf7e/gHwdpcEfxg0XUPDOtWly9r4iscw3cWgfuvOt5b+9hc2yRXitCLXDl5XmVAgZJRF0Wh/ty/DJNOXW/i3ouvfDXSxZR3Fxqfi6yGl6dBcteGxaxku5JDELgTBduGMUsbrJDJImSAD7XorB0jxR4c8QPcRaDfW961nJ5M4gkWTypB/A+0na2Oxwa294xQA+imbx2/Sl3CgB1cL4OGL3XvfUm/9EQ13PtXEeD/APj+13/sJN/6IhoA7iiiigAooooAK/Pz9vD9me2/aesvhvo6+KrTwzeeE/Gum+J7VbmMSfbn01ZGNqn72IqxR2fcu8jZ93HI/QOvzV/4KBftD/C34FSfDnSfi14GtfG2neKdfWxQXCwyNZTxJ5sNxEk0bAsswTnchVQSCSAp+k4Pli45lSlgP4ivayT+y+ktNjvyv2n1iPsd/l2+4/SkHIpagWVQv0/Kp6+aTOAKKKKYHj/xex5HhzI/5j+n/wDoyvYK8g+Lq5h8Of8AYfsP/QzXr9ABRRRQAUUUUAfmv+01/wApFf2Yf+ufjb/0129fpRX5r/tNf8pFf2Yf+ufjb/0129fpRQAUUUUAFfkj/wAFr/F/gPw9+wVq/hn4h+DdI8cWXjLW9B8MwWfiK5uLDRbW71XUoILXUNRvrUrcWltZzFZjNE6OCqqjKzA1+t1fm9/wVcu5rf8AYc8X2sd++nw6gbSyuWTwefHgkgnuI45oZNBX/j6jdCVYniMfOfu4oA/NT/gi/wDs/fsw+GPjV488Ky/Cr4ZWXxT+CsWnaenjb4ey3OoWN9Za/DPchPtN/LcXiahGEdLvzp5ZGSSMh/LcIP6TK/lN/wCCRPxavvht8T/Dn7M/gTxLqtroOqarLfPpdp8DLrwFpUqR6deeck98P3EMkkwt5Vnf5j5At+fOyP6sqACvy48Af8pTfjt/2IPw5/8AS3xXX6j1+XHgD/lKb8dv+xB+HP8A6W+K6AP/0/6wP+CUv/JBvHv/AGV74n/+pjqtfc3xq+NPww/Z2+FOv/G/4zatFoPhbwxZvfalfTglIYY+p2oCzMThURFLOxCqCxAr4Z/4JS/8kG8e/wDZXvif/wCpjqtfYv7SP7PPw4/aq+BviX9nr4tQSz+HvFVobS7FvK0E8fzK8c0EqYMc0MiJJE4+66g4IGKAP59vE3/BSCT9tf8Aab0j4Yfs6/tNat8LvCevX9vpOizaH8PJZ86rJA0jaXrOs+IbeW0tNRlKlobFbSJ9hi+dzIFr9oP2XvhF+2b8H9cutD/aD+Lln8WvDj2mbO8utCg0bW4LsOo2yvp8gsZ7dk3YxawujAcyAkj89P8AgolpHhz4AeL/ANnnw94A8A+Ivih4kj8T3Os2OkWWuaX4etNa1zSrCEJqniC9vBDHe30aoJYYwRJNIrNhli2V+sX7NPxN+Lnxc+E9p42+N/gKX4aeIJ5p45dCl1K01ZokjkKRP9qsS0Deao3bQcp0ODQB9C0UV5n4r+Mvwn8CeOvDPww8Z+I9O0vxF4ze6i0HTLq4jiutSexh+0XItYmIaXyYfnk2A7V5PFAHplFfLPhD9uD9jnx/4j8X+EPBHxR8LarqngCKafxLa2uq2ksukxWxKzyXirIfISEqwkZ8BCMHFd38Cf2kPgF+0/4KPxH/AGcvGWj+OdAW4e0bUNDvIb63WeMKXiaSBmVXUMpKnBAIOMEUAfFvxD/5TI/Cf/sj/jz/ANPvhSv09r8wfiFz/wAFkPhPj/oj/jv/ANPvhSv0+oAKKKKACvz8/bws7nwH4d8J/tW6PCZJ/hLrKatfCMHe+h3cbWOroMA/LHbTfatvQtbr7EfoHXOeJfDOk+LfDt/4V8RQpdafqVvLa3MDj5JIZkMboR6FSQfaufFUfaU3Baf1oepkmYrCYqFeSvFbrvF6SXzi2j4q/YQ/ap079rfw54/8eaLK02naV401LRbB8ho3tLOK28mSIj+CVHEvsXIxX3oZVBwePyr8wv2F/hz4O/Z5+Nnxi/Z78FDyNL0m48NXWnwlhxbvoVtYjd0zMz6ezytgZLAnkkD7U+P/AMQrn4RfA3xl8VrIwrJ4a0S/1OMTAmLfZ2zzKHClTsyoBAIOK5MurSWG5qz1V7/Js9zirLqEs3dDLo2hPk5F5TjFq/Trqe0LKrdKlryv4L+L9T+IXwf8KeP9ZSOO713R7HUJlhyI1kuoElcIGLEKC2AMnjvXqdejCSauj5KrSlTm6ct1oLRRRVEHD+FAP7d8S/8AYSj/APSG0ruK4TwkT/b3icY/5iceP/AC0ru6ACiiigAooooAKKKSgBaKQEGjIoAWvHPjP/yDNA/7GDSv/SlK9jrxz4zkf2ZoA/6mDSv/AEpSgD2OmbeMU7IpaAIDGx6U/YfwqSigDidU+HPgTW7q4vtZ0ayupruSzlneW3jdpH06Xz7NnYrljbS/PDn/AFbcrg1091p1pfWb2F9Ek8MylJI5FDKysMEFSMEEcYx04q9n2paAPkT4n/ADxZpWrXHxJ/ZautO8J+KbhLwXcEtsq6VqlxfeUovNTit0EtxcWYj8yBg6M3zRM6pISu3FL+2Na68Lb7J4PudKXWIE+0Nc38Vy2jc+dIYRbvGL0cbIxJ5J5y619P5PpS0AfEngj44ftQw3ttf/ABr+Fkmm6dfz2mlxRaJeR6pdQXfmzR3N5dDMMaaadsbQOhecK2ZYkJKxu+H37cvwz8barDHrmkav4P0m8vH0mx1bxJFBp9pd6rHcXNu+nQbpzI84NpKfubCAAHLkLX2oI+fbpj2rxv47/AfwF+0Z8M7v4Q/EuF7jQdRmtnvLaNtonitp45/s78f6qUxiOUDBaMkZGaAPIPG37e37MXga81bS7jXZdUutEbUbe6j0myur9VvdKiSa5sPNt4nh+2qjjbbFxIxDAL8j7fSPgt8X/hl8SdT8UWXgjW7PULvTtWeG9tIZka4tJlhiDQ3EQO6KVCpVkcAqQQRXt1lpVjptsLLToY4IV4CRqFUD2UAAfhXzbq/7P/wu+Ket3uu+IrF7bV9H1LUP7P1TT55bK+tGv7FbW4eG4t2RwWjfoSV3qkgG9EKgH1CHUnaKA4Iz6V8fQfsd6P4YtLib4U+NfFfhbVbyGwhuNQTUm1OScaeCiPNHq630LyyRERSS+WJGVUBb5BUN5B+3D/Zv/CWtP4US80ldS8vw7bC5MGrnLLpxk1SZN9j8uGljS0m+fAEm3igD7GEimpK+SdL/AGs9B/tC30XxL4T8Vaddfb00m6k/sW8ntILxoPOKi4iiYS24b90t3GrW5fgPjmur+G37VnwS+K+sWHhzwrf3kGo6lpdxrVvZ6rpl/pNw1jaXX2OeYw6hb28ieXMVDKyhtrI+3Y6MQD6Lr4W/bM+FvwE+JVv4SPx78M61rdvpWqJcWF7pEV1P/ZtzhQktxHaEuY5CBFlopVXdk+WAXH0N8Ofj38K/in4F0P4jeFNUQaX4ldo9Ka7BtJLsqZAPJin2O4dYmkjwvzxDzFymDX5/f8FNf2mvjN+zXd/DLVfhJfR2tvquqagmqwzQRTxz21vYtNgmRSybCNylCpyAD8uRX0fCOCxOIzGnRwkuWbvbVx2i+q20Xp30O/K6U514xpb/AHdD6b/Yk8f/ABM+J/wMHjP4qmU6nLr/AIhhiM8aRP8AYrXWLuC0/doiYVbeNEXI3MoDEsTmvsmvyV+CP7Wvhv8AZ10bxbF+3b4+03w7fa54319/Dj6rO1rbXWl26Qyx/wBn/aWYtbIrER7WKlvlTkha9l1X/gqx/wAE5tE0t9U1L4xeGU8vaGtlvUe9DHA2fYkzdbx0K+VlcHIGDjrzjh3GVMxnHDUG+e8oqEW01/dstVH4dFpaxWOws1KdVR9xO11sm9lfa/kfoD5ijg8Y/lSecmK/B3xP/wAFq9P+KniK3+E/7Bnw2174jfENb2aS90PVrabQVt9Gs41lkvXmu0URfawwitA/zFz86DCo9/RP+Chf/BTPXvh3rOrWH7I2rrrFiguoPtOrW1natDsMroYrkRXckwUFFjijYvJjOzIWiXAeaRUfaQUG/sznCEl/ijOUXG/2bpX6aEf2fUSvKy23e6el13Xmtj9ePi1IrReHAvONesf0Y169u9q/nui/4KiftRfFDwD4U+IGn/sweKdR0m+1OC50+/0u9ikt7wQSFVaKO8gs7qNZesZmgjDL8w+Xmvdf+HmX7XH/AEZ/8Qf/AAJsv8a58RwdmNGfsqsEmunNG68mr6NbOLs4vRpNWVwyqpJXjKFv8cP89u1tO2h+zm72pN/+ya/GL/h5x+10P+bP/iF/3/s/8agP/BT39rof82efEP8A7/Wdc/8Aqvj/AORf+BR/zNv7CrfzQ/8ABlP/AOSP2myKTd7V+Krf8FRP2tkGT+x38Rvwe1P8hWVN/wAFWv2qbf7/AOxx8TeP7qxH+S1UeFMxekaV/Sz/ACKWQV39qH/gyn/8kfS37TLqf+Civ7MWP+efjb/0129fpXX88fgz9rn4rftRf8FGfgIvxH+C/in4TR6JB4sNu3iRBH9uNxpibvIAVSfJ8sbvTeuetf0LodifNXj4vB1cPVdGvHlkuny/yPPxWFlRn7OTV/JqS++N0S0VCJ4jkKckcYHtjt+VJ9oi8vzgfl657Y/w/pXOcxPXxr+3P+1N4c/ZE+AF18R9Y0vUNe1HVr6y8OaHpGk+UL3UdY1mdbOxtLczvFEjPLIMs7qqqrMemK+yNw/yK/PX/gp94FtfiT+xz4j8Iz+B7D4gSXE9g9vpl94hHhMJPHdRyQ3kGtbJDaXNq6ie3dF3eYijvQB4N/wRw+LPxFm/Z2T9jn9orS/Emj/Fn4LWWm6f4kHiea3u7q/j1BJZrLUo7y1u72GeO5WORMidmWSJ1PAVj+wtfyI/8Elf2lPih8A/25vFP7Hd18CorS38V3ujPr3iuDx3L451uCefStRnsptT1C4jzd2Sx6eYI/L8lLFnVWEjziv67qACvy48Af8AKU347f8AYg/Dn/0t8V1+o9flx4A/5Sm/Hb/sQfhz/wClviugD//U/rA/4JS/8kG8e/8AZXvif/6mOq1+nFfmP/wSl/5IN49/7K98T/8A1MdVr9OKAP5Z/wDgun4o+C/xr+LPw1+GHiiy8EX9x8O9WvZdU0n4vz6z4a8L30ep2UKWz2eppZfYbu4QnCOlyRAxaNkLyAL+wf8AwS3+HukfDD9j3RPCuieFvBHg61+1XlxHpvw81OXWNBCzymRZLe8lSNnaUEM42gAnAyOa+RP+Cz/jH4w+EG+FI8PeL/HXgX4e6hf6vbeLtX8B6BF4kulzZo+nRXFi1lfOsMsquvnLEUQja3+sQj5I/wCCEMv7Wfg/4t6/8PfHUnim6+HWs6HqPiWGTxB4VsPDcaXU2vTWuk3EaWNnaFbnU9LhN1dW0/mSRkRsSokC0Af1D1/JZ+0t+yn/AMFKNY/4LP8Awr/aw1fwLaeIrC38V63pfh/XLDWLt7TQfCh0K8tIPtlp/Zrw2M7S3El20jTP9sufKtf3Uaqy/wBadRhMUAf55nw6/Yr/AOCherfsW+N/2PPDXg7xfqHiTQfhV4l0nxKniPw3ZW8NprKa/BeWun+FtVFrby3sOr2gnlnEd1dJI5SQlZPLA/pf/wCCSGg+NNY+L/7Sn7Ulh4K1vwV4J+Iuu+Hn8M6Nr1jcaPdzto+g21lf3v2K7WN4BcXAEYZkXf5OeRg1+6Xldx+NAjIbI4FAH5M+P9a8SH/gsF8Krj+xZBMvwi8dKIfPhyVOu+FPmzuxxjmv0v8A+Eh8X/8AQuS/+BFv/wDFV+f/AMQuP+Cx/wAJl9Pg/wCPD/5XfCf+Ffp7QB5Hr3xLuvCtkNS8UabHptuWEYlur60hj3EZC7ncLnAPGexx0q7pXjrWNd0+LVtE0f7ZazDMc0F3bSRsP9llcqemODX84f8Awc9eDvh/c/Bz4O/Fn4p3PgI6B4R8VXb3WmfEK81mHTNT+2afJAkCW2hxyXdxMh/fKy48ry+uxnRv2T/4Jh2Hh3Tf2BPhbb+ErTwzY6W2iRy2lv4Mubq80JIZXeSMWM96TcvDhv8Alt84bKkDFAH13/wkXi7/AKF2X/wIt/8A4qlPiDxbj/kXpf8AwIt//iq7ykOe1AH5TfGbwtpWm/8ABQj4L/E2z8HQ2niPUrXxFZ3V4rWwubq3gsEMUTyqclItxKqSMZ4r07/gop4r120/YP8Ai8L/AEWS2hm8JarbmX7RAdpntmiUcMTyzADio/22LzU/hV4r+Hn7XdxCLvw98NL29GvxLxLDpmrwLaS3sfZhZnbLKnUxbyvKhTa/4Kd+Xqv7AvxG06zcGXVNOisbbBzumvLmG3gVcdd0jqF+orwcW+WliEu1/wDyX/NM/UMk/f43J5Td4pxh6Wqt2+UZRt5NWOw/Yw8ZeLNU/Y++FWpJoUs4n8IaI+8T243ZsYecbulfTKeIfFpXLeHph/28W/8A8VXzr/wT+v4b39hz4RMh4j8IaPbn/fgs442/JlIxX2CsqHABznp0/D+Vell/+7wb7L8j43iqkoZpiYJbTmvukziv+Ei8X/8AQuzf+BFv/wDFU0+I/Fo/5lyc/S4tv/i67reKbux0H6V2HgnhvhXxL4rGu+JSnhyds6jHwJ7b5f8AQbUd3HpXaf8ACT+MR/zLFz/4EWv/AMcpvg+QHxD4q7Y1SPHH/UPs+legBlBx/SgDzw+LPGo/5lW6/wDAm0/+O03/AIS/xt/0Kl3/AOBNp/8AHa9E3IOvH5Um5f6dKAPOD4w8aj7vhG8P0ubL/wCPUw+NPHA+74Pvf/Aqx/8Aj9eliRWXd2/KlDrnb3oA8x/4TXx5/wBCbff+BVj/APH6aPGvjrv4Mvx/282H/wAkV6j5gztrC1jxP4f0CWzt9YvYLSTUJvs1qs0ixmabaz+XGGI3vsRm2rk7VJxgGk3YaV9EcQfHXjj+HwZfn/t5sP8A5JpP+E58d/8AQl6h/wCBNh/8lV8r+Gv2u/8AhJ/+Cgmt/sn2G3+zNC8L/bpJ9ow+qrNbPPbrJ0LQ2d3bSMg5USZIAIrv/jv+2t8FP2cviRofw7+Js93bvrFpLe3F7b27z2umWyyx28U+oSR5NtBNNJ5UcrL5e4HcygZriWY0eVybsk7Hvz4VzBVadCNJuU4qcUlduLV1ovJbHsh8f+Ox08Eakfpdad/8lV5L8WvHXjiew0QSeC9Ri2a7pjDNzp/JE6nAxdd+2cD1xXT/ALTvx2g+AHwL134pWcA1HULWOO20uyyAb3U7yRbaxtU95riSNOOgOegr8v8Ax/8A8FDPEHwY0ybwT+2FHZf8JZ4a8faXZzjw9bypbnSJLKHVG1IQyyyym3tYmlSV9xy8XAUnYHicxo0ZctR2Nsl4Px+YUfa4SHNrZJbu1r2XZXjf1R+tn/Cw/HmcDwFqfBx/x9ab/wDJdIfiL4/BwPAeqH/t603/AOTK+KP2xv22fH/wO8SaTpnwi0zS9XsLLRh4r8Q3t68rJHoa31rZf6GIGAaeVZ5JkYllCwEbWLqK89/az/4Kh+Dv2U/jj4k+GXiPybh9P0TQL6xtzkGSe+1Ke3vxlRn9xaeXOcE8KQFzkHGvnGHpX53a39fodeV+H+bY2NJ4anzc+yVr6OMdV0+KO/R32P0eHxB+IB/5kPVf/ArTf/kymH4h/EEf8yDqv/gVpv8A8mV6Nb+INJudUk0W3uYpLyGKKeS3VlMqRTl1ikZM7lRzG4ViMNsbH3TjTNzEJBFxk5wPpj/61ekmfHWPIv8AhYvxC/6J/qv/AIF6X/8AJlIPiJ8QT/zIOq/+BWl/0u66Lxp4/wBE8K6Dr+oNcxmfQdMbUrmIFd0cOyUo5BxgMYJAM4Hyn0rzb9lf40QfHj9n3wV8S7meFtR1vw/pmpXsMbAmGa8tldgV4Kjdu25Azjisvbx5/Z9Tr+oVfq7xPL7iaV/Nq6/BHUN8RPiGvT4fasfpdaX/APJlIPiJ8RP+if6sP+3rSv8A5Mr2LzlPXj8qN6n8vbtWxyHkH/CxPiJ/0T/Vv/AvTP8A5MpP+Fi/ET/on+rf+Bel/wDybXsPmDOOf0o3JjP+FAHj3/CxfiJ/0T/Vv/AvS/8A5NrjfCHxC8eR3GtGPwLqr7tRcnFzpvynyohg5vBz9MiuPsf28f2X779qLUv2O4fE0X/Cd6Pp7ald2jKUiihRYnKmdgIjIEmVvLDbgoJIGDWB4c/bc/Y+0W/8UQat8U/CcEmnX7zXCPrFlmKJ1jRCV83IBbCjjk8DmniougoSrLlUleN9LrVXXdXTWnY9CjlOKqScKdKTatok9L2t06pq3qj6C/4WJ8Q+3w/1b/wK0v8A+TagPxH+IYx/xb7VueMfa9L/APk3B6Vl/Hf9p34Ifsz+AB8UPjb4itdC0Np4bWKeU7vNmuDiNIkQFnJGW+UEKis5wisR43+0L+3j8E/2dfGng3wl4ru1uh4mvZYbu6tnV4dIsotsRvr4puENst3Na27PJsVTLuLAIQXiqc6GHjiqsWqcrpStZNq10ntpdX7XROWZZiMZV9hhYOUuyXZX/I90b4kfEI53fD3V/wDwL0vH5fbPYfSvKfi1p2lfF/QF0X4u/Ca+1TTrORbpftN3piiJo+d4db5Su3qeQOAT0zXxF8Rf+Cx/wG8NeP21/wAGXuneIPhD4bnh0vxZ4ttbpStlqN8xFtHZxgZvkhWMvd/Zw7KksciEhHU/OPxp125+PPwQ8WftVah4q8WPbfE/Wl8MfD3wdoeomztfEFiubS0glgdH2pqDJc3dxcIscsNm24viOuinlWOqYmGCo0H7ST5UmuVXVr6tJWV1fstXoe1h+GuWj9ax1RU6Vo66S+LaNk9G4pySdny201Rd+OP/AAUL/wCCb/hXwVf/ABh0fwHo3inxJ47ure6s4T/ZlzdX+p6OVtbSe5Eck9xbpZlgRcNEPLTc8e7PP566hoH/AAVj/bS8CXXw5+FGteJNa8P6jpz6e+ta1bzeG7C2hhnF3byaZff2hBd6lcu6R273clqyGFfvEvJ5n7+fsgf8Ez/g7+zj4nsvj94mt0174uXOnm21bxA2UiLSKitFZWi4htbaBI1t7VI0UpbqEJOWJ9t+Knwy8a+I/wBrX4S/ErRLQSaH4YsfEsWpziRF8p9QgtEth5ZYM28xvyoIXHOMjP2eVVcpwOLvTXtKlNO05O1JyjFtONKylrJWgpzaejlDVwMVjsOr0sHFKLu3zxjKW2kL7dPijGLbbtokfiH+wB/wSf8Ahz4B0NtV/ap8L6r8YvGejRnSLrTNV1bS9T0vQlkiWY6elq9+Yx8s/wBoRZEUKJVdYw2HP7M/Dz4IfCT4SaXa6P8AC/8AZ/s/D1tZOJYE0+10G38uQY/eKUuQd/yj5vvcdeK774M/BjxV8OPjp8W/iHqdxbPpXjzVdM1HT4YWcyxNaaVbWFx5wZAoZ3twV2MwKAZweB9Vc5rg4n4oxmMxNSc8Q5Rqcrau1G/KtOXb3fh+R5WPrc1VST2WnlfVpdtW/nqfNNlNqeneK7zx3YfC69i1vUYILW6vll0kXEsFuztFE8gvQzJGZHKKTgbjgDNdefHnj4kf8UDqwx/086X+X/H7Xs20UuK+O9nHojklNytzPy+S0X3LT0Pk/wCJPjTxhOnh9ZPBWqReXrNoy5n005Kk/KNt51I9cD3r1n/hPvGrdfAurf8AgRpn/wAmU/4oJuTw/wA4/wCJ1Z/oW4+leqEA9apRRJ5T/wAJ141PTwTqw/7eNN/+TKkHjjxiP+ZK1X/v/pv/AMmV6lgUtOwWPLB448Yjj/hCtV/7/wCm/wDyZSjxr4vPXwbqv/f/AE7/AOTK9SpKVhWPyT/aT8WeI5P+Cg37NM8nhjUY2ii8abYTLYbpM6Zbg7SLor8vfcRx69v0kPiG81LSNRPiLT7zw3axW0jPezzWg8tdp3OrQzTBCi/NuYADFfDn7TSt/wAPFf2YcHH7vxt/6a7cf54r9H7uwtb+0ksL6JJoJkaOSN1DI6MMMrKeCCDgjGDTSGf57X/Cxv2fJPg3+098XP8Agmr8S7nTvCeleCrLw9fWz+JpL/xd4pSLxHYp4g8b6hZiXz7OODTpZbSG5aGOaSJzIFjjMSn3CA/Aj/hPE/ZwvfECJ+xYf2hZdK3jV5/+Ee+yDwV9thsP7S87/jxbWfnaLzvKWYfwV/bX4d+BPwV8Hzz3PhHwhomlSXUL207Wen20DSwSY3ROY41LRtgblPBwMir4+D3wpHgsfDf/AIRjSf8AhHgd39l/YoPsWd2/P2fZ5f3/AJvu9eetAH5uf8EMfFPxA8af8EoPgz4k+Jl7eajqc+k3Cx3N+7yXEtjHfXMenu0j/PIDZLDsdsl1w2Wzur6h/bt1f9ijQv2cNX1H/goImhSfC9Z7T+0h4kgFzp3mtOgtfNiZHGfP2bPl4bHtX13Yada6XZxadpsSW9tboscUUShEjjQYRVUcKqgAAAAAdOlfAH/BUL9ojxV+y3+xt4j+LXgbV/Cfh/VIZ7Czt9U8avKujWRu7mOBriWKANNcPEjF4reFS0rgLjBNAH5K/sheE/8Ag208Y/tweFPG37C2ueEbT4sfbRd6JYeFmezDNZabfQTRxW8cSRrDLa3Eslwg2iZoonfd5S1/TxX8nP8AwTV/Yr+Nj/tY+HNS0z4r/D/4q/Dn4beLdW+Juo+JdHd18Rahr3jnw6VWCfT4VNrZ2jJqEl5blZGDQNGqjIbH9Y1ABX5ceAP+Upvx2/7EH4c/+lviuv1Hr8uPAH/KU347f9iD8Of/AEt8V0Af/9X+sD/glL/yQbx7/wBle+J//qY6rX6cV+Y//BKX/kg3j3/sr3xP/wDUx1Wv04oA/mU/4KlfEr/gpv8AtA/F3WPg7/wTU8PJpXjH4Yzm2tfE+k+PfD6tJHqtjby3Nrq/hq9hkkQFCrW5lZZEdI54ztOD+lX/AATEaH4Z/ArS/gD8T7Z/DHxOjN/q+r6BrHi+38X69NvuQs2p3V7HsLrNLIuQsSRwlliUKAorzv8A4KaeAP8Agj/bat4X8V/8FMPDfh61uPEMkunaZ4n1Oznt2haEI3kS61ZqjWasH+TzriNGwwHQivsD9j39nT9iD4HeAf7V/Yg8MeFtG0HXds8moeGo7d11DuJJbyHc9yefvPI+PpQB9i0UUUAFFFFAH5hfEP8A5TI/Cf8A7I/48/8AT74Ur9Pa/ML4h/8AKZH4T/8AZH/Hn/p98KV+ntAH8yH/AAXZ8d+J73xl4Hf4ReCvjFD8RvhbqS6h4e8U+AvBVr4usGXXbC7tr23Npe3EUMwSCHbK33oHeLH36/Vj/gk94C8KfDT/AIJ3/C3wb4N0vxJotla6W7taeL7JNN1tbie5mlumvbKJnS2lkneR/KRiqKwVTgV+JP8AwcUfCHwZo/xq+DX7Rj+M/jFZ+Ic6lYW3h/4aa5FpmIILZln1GCa8fydOmX7XFBczpHJ59u3luihTKv7Rf8EiNF8DeHf+Cc/wx0b4dadrmk6XBZXSi08TXseoa1FOb24a5Go3MSRxm6M5kMyKiiJ8xbV2baAP0n8xc4+gqSv5eP8Agpz/AMF0fjD+wv8Atu3nwO0C3+HVr4N8G2Xh7UNZg8S6tPB4h1uHXZ2hdNFhtw0MTWKr5k5uhgJh+EINf0g/Cf4ufDP46/DvS/i18HdbtPEnhnW4jPp+pWEgltrmIMU3xSLwy7lI49KAPMv2tbeG7/ZY+JUF3Grxv4W1fKsAQf8AQpuxr4C+L/xM8C/FD/gmp4M/4QLXLLxBJc6l4C0l5LG5juwt8NZ0pZoHeJmAlQgh1PII5Ga/Uz4o+Brf4nfDbX/hxezNaw+INNutNkmQZaNbuJoWdR6gNkduK/KD9oH/AIJv2fhHVvhlr/7IWnRaJYaL4g8KweKdIgCpHqWlaNqdtcw30meJL2y8o5lb95JC8i7iwRa8DNIVfe9mk0428/kfpfA+Ny9KjSxNRwnCrzp292yS0b6X5UlZetlquz/Z/tNT1T/gjRHpelQST3k/w91W3ghhUtI0htbhERVAJ3k4AAGc1/ON8Dtf8e/BPw3oPiX/AIJa+BfEHg7xro3wGdfiBb3vh7VNNj1TXoL3Q4/tdpp+o223UtQ09ZtSmNxBaXQ+cJsmMqRP+5P7Fv7WHiH4Ca9pX7I3xm8Ov4W8K+FX1fQZfEepMsNt/blvPc6nDbLIWEfkSaPtuVkOASdo45rl7/4TftdftWfFaP8Aby/Zi8RxeFbjVru98P6HJqMTPbjwjaxeZb3RtJAvmHUtQgMinG4QTxMB8mRnhc05cPTjSXM0kmu1tz0s74JlUzXE1sbUVKlJylCb1i+ZycFpfezeivZbHwin7S3/AAVr8ceCNB8P+GfG/iGzsf8AhHPidq1trlh4fE1/fN4ft9NuPDUV8+r+GtLHmzTyXMQMOnW4vIB+7/ebnXqtL/a//wCCk3iH9qmz8H/EGDxLrfhvxh4Gilm0Gx8Pvb6dpck/hJbu4nvVudD8uaNtU81Fmg1ot5jram0+UhvYLL4Qft0eO/2t9L+FnxR8S3Xg/VvH9ufidc32kyo/9hXulQXmlwabEDujnggFzpqzqflmCyL0YsP0+sB/wVG0QzeLdWTwFrK2BS2/4R21a9tf7RijUGS9h1F1b7LPKx+W2e3kjVVA83+KurC5s6l/3bSWn9fgeJnnAcMI4Rhi6cnKKe9lroknaz95NX20u7Jo/n++Hnxv/as/ZD0n4h/tIt4h8Twr4G8H/CvxZrPhG50S2t9Ku/DtrpFnF4js7OU2EMdtdWiSyGK3S4jkDrh0YAlf1o+Kfxy/bM+HP/BJTwx8XvHt1r//AAtPxQdJudWn8PWFvLd6NFrt8k0kJSLTNSEdvptrMLaW5TTbuZUj83y3k+arnxQ+NPw4+PfhzX/hb8Zf2ePE3i/xH/wkFpeaf4X1vQnutKXVYbO2iga41WNZ9LSFTl2laUqIGzsbIQ+oT/HL/gpF4V17TtY8f/C/TpfDnhZo7fxIvh64bULnW0vDsS80K3IWREsiFeaC4/eOCyJu2q7byzWktrv0T0/4Y8qjwTjX8bhDtzTir/4ddU3ZJrTzsm1+Vn/BMr4hft0/FT9vX4R/Fj9sbU/F9u138LvGOgSxXWkyWmm3Wo6Z4vnhhW7H9nWq291NpkFrdeY0do83lx4RVYxHovh7olh+z5/wVz+I37Rj6DrPiprq98V6z4vvL3wHfwX2g6RY6PZR6Z/YusQPLHqcF0bfyIba3WSW4LyP5Mbo+79RD+2D+215dv4vP7PGpx+G45DcXATUrZ9VmsLg+XZi3scxsl4pxJeQylFijGFZ2OEmtP2qf25LyW/+Fz/A/wCz+PJj9qsrmS/3eGINNnXdE15qYj3NdxNmGW1gid2dPMUrA4cH9qU+z/8AAWU+CMalvT0/6e0/0lpbr5WPw3/aosPjV8Hf26/jR+05+yv4Z1fxZ8UNQ0bxdqYvNT8FXKXHhu2sPBix6Hc6PrDfabW9S4vIY4EstgaV5pke3RoiT9CXHx6/4KSfs/fGbRvF/wASPiL4n8T+CdI+IPhnTtbgvfDmnx2beHtc8LPqms3Msllp8MqxaffII7aSORRBzFOZnb5fvvxt+3r+2F4JL+BvEHwVex8ceLbZJ/BGkxXq38U5t2/4mEepXEOyGCS2iAuFVGIeN1UNv3BdTxB8Z/iB/wAFKvhJdfDf9njw6+mfD7xJHbWOveKdbmeydYpDG+o2On2SwvLcyKnmWksjvDEsu8K7lDWTzeDTjT+LorP+u3ojsp8AYyk4VsXyxo3V5qUGku6tLXqlb4pRko/C7e6ftBft/eEPgyPBl/4X0O98Y6fr+nv4k1WTTBvl0vwzFGvmarJCAS6LJLF+7GHZPNZQxjK18z+EtL8T/wDBRz40aTN+1B8KdR8LeCfBmizajbabrW2SK/vdakC6fdQyxniS2sYXLhSsttcTFCRhSfpf9hn9iq4/Zas/Es/inURrN9f3J0vSXfn7B4Y0+WVdI05M/wAMcTs7ertzu2g13f7b37T/AIk/ZI+F+heMfBnhRPGeteJvFGjeFNP0yS/GmRvdazci1hZ7kwXGxFcjP7s4HPQVFLCVqyUsQ7L+WysdGLzzL8slKjlEOaaTSrXknqteWOiWjcb+Sas1r8lftJfsreKPgjrPwuu/+Cf3hmw8PavLrWqaTczRQE29jb65p5+06nOOfMe3NjBIolJWR1RGBLLX1x8P/wBibwJ4V0XxjZeO9Z1jx5qPj3TU0jWdT8QzQzXMtgkcsa2sQt4beKGEefI21IxlmySTgj5c8E/8Fc/g1oul+KNE/az0a6+G3jzwV4kk8Nan4asVuPE8zSJp8WrreWZ0q1eaeyGnTLcyztbRCBQwkC7Ru9v/AOHqX7CDfFuw+Cdt45W41rUb7TNMilhsL+TTlu9asE1PS4ZNTW3NjG19aOstqGnHmjITJVgOmGW0lJyt8ui0tttseNiuMsdVw8KDlZx3l9uXvc6TlvZS1S2vrukeDfs8f8EyvFvwl1LwJe+PviXq/imw8Najca7qekXzfaLS71pVmisb2B5P3kH2eOb5ogSskiRyYDrk/Tnx7/Zh+BPiHx/YfGrWvDVrdeKNSnsNBub9t5d9PluFDwlM+X844L7Q5T5d23ivKtO/4Kr/ALLfjvwDbfEb4L39xrmmXHiPw/oQnvtO1bS4riLxBfLZW13pzz6e32+NyW8g26tFIwCGWMMGrwiz/wCCw/7FvxZ+C2n/ABY1vV7/AMIw6bdya7cWet6XqNrcDStH1n+zZ7qJXth9oHnNEpjt/NZXlWLG/IF4fLKNKPJGOhjmvF2Y42t7evV96zWiUdG72tFJf8BJbJWwv2ZP2NfiH420n4y/Az9o6W6t7O20LSPhrpWq2+BJdaLpyXVzbXkLSI0ZkeO+iSUFXHmxMhY4wvMfBX/gnvpP7Tuv/Ez4q/tM6sfEfiU6v4o8H2+qLZx2vm2X9n2mgrcGCNiiSRLbTlQgVd8jMAvy1+mP7UH7cH7N/wCx1oumeJ/2gdUv9K0/U0knFxa6RqWoQ2ttB5Ymur57G1nWyt4zLGHmuPLQFgM9a8E/Zr/b3/Z+8b+Ff2gdS8J6fqek6L8B/EuuW+t3N5BJHHdtFGdVvLq1kkVYnjLyzBVEhbYqSMFSWLPAsgo+6pK6X9L7rn0lTxRzLmrVaD9nKdl7ulvdUZW6pT5Vdbfcj5a+AHw0/wCCjjfGzxZ8fbhNDs/EPh20tPAdxoesfaYtP12y0qCK6h1Szu7cO1sZ5ricpuhlRBK8ZXehJ8j+PH7Yf7Wfxr/ai8K/DP8AZ08HXnhvxx4Lh1LRfFljevHdW+my+II7OGxvxcWxkjntYN4u0LqhdYyhVCHC/fP/AATi/wCCjmm/t+/DHxJ8VF0DTvDdhoTWkirYa/Y64WgvLRb1ftS2ixvaXMaMBLE6NHn/AFM0y7mH5/8A7Ef/AAU//Y88d6x4v/br+IOj2Xw+vfiLJ4Z0C3s9Nv5/EmrX95PbX9xp8c+mWGmpdWt3c20ISNf3yz+UsaESRkNFbJaihGlSqNK+vfvp87L0ud2B8RMLLEVMbjcJBzjDlppL3b2ULSV9Y8jk0/iUrJOx8lftM/Gv9vD4GePPHXhX49aSk158a9Fm8FCe1QtbrBpNodLh1OJMMqxXt7qkUzqQPLEphwXKgfSn7APhn46fsO+MvGXxC8R6frniv4enXdX8G3NppFrJqNzp0Ph2SNdKvlgjzPLE6PeR3DLGWBEe0bNor9Ovgv8Atc/sAf8ABQrx3beHvhpqQ8Vaxp2gjV7RL3TNQslfS7m8hV57dr23gSYQ3tnHFMYizQXERifY4Za+lPj38XPA/wCyj8HNU+It9ps13Gl1HHbaZpwU3Woalqt2sMFtbq7BTLc3U6ryQAWyeARU5ZwhWrY2MaM3KbdoLzfT5v8ApHsZp4yUKuVrBLBQjzJKrbRSUUlDlX2XGMY2fdXd9b/l/wCJv+Ckf7SVt8PpPjJ4M8H6br/gz4ga/eeGPh5ewfao7xb5ZJbTT5NStJAvmWt3PA7K8bxui7VMZzvr3X4yftx/tIfsi/Dy58W/tQ/Di0nsLdWgTxF4X1D7ZYSXTwubVZLKeOO9g+0TKkO1RMiNIv73pW/NJ/wUZ+IlhY6efhN8NfC1lbXUd9aDV/EN7qctnLBIZIWe1s9KhhM4POY7oqjEsGfGD8u2P/BGr4gfGHwRa6N+2P8AGnxN4gurNJzYW+jXLW8GlSXmofartba4lUzXEMlvHBbwx3ayG1w5ibmMR/pGB8P6cKdSrmWZwptWUVG1W7s+lNtJJpXvJWj8N2lF/EVOLconOnFZcuS75tZKXLpy2ei5lHrblb1aPti1/wCCgPg21/Zf8K/Ha80S+1DW/El3Hoo8M2Bgjv01qIyR31li7lt44/sTQTtM0siKkURckDGfj/xH/wAFCf25/wBpH9n+b4s/sCfBKe3tJVT7FqnjO5to/t7yTpbx/wBl2NjPP58bBt/2qee3tlRS4MiivSPH3/BEL9h/xHPoF38PdDk8ET6XL5WoT6PLIsur6ZLE0N5p96zsxZbuJjHLOuLjaWAkw7A/rfpWhafoWl22iaLbxWdnZxpBBBCoSOKKMBVRFUAKqqAAAAAOMYFdMf7HwEFUot4mb0tUi6ail1ahNuUpdLT5YxWqbfu/O4rH4eU1LDUeS0r6u+l9ILpypWu3G76WWh/Pd8I/+CI1nq/7PPhvxF8ZtSsG+N15rcvi/wARazqmmWuu2tzf30EkcunXNtOUS4tIBN8oV0HnKZExnbXbeBf+CfX7Qvwp8P6uPCF94S+LcNxeXp1Tw94u05dNtory4j23LeHruyinfS4JIpDEtq8VxGqqu1kJct+9mFXp6Dj2H+eK8/8Ah58x14/9Re4H5BBW1fxAx1ZOniIQnT25ZU4tKCekE7c8YR+zGMly9DklmOJc3U9rK929G1q93ZaXfp5bH4Lfspf8EOfCWreDPE/jj9vyOLxj458VWJ0uyhnmN4mgafHCLa0WK5CQ+fexxJHm42KE2KsQUby+noP/AAQ98UW3gifz/iLp/hvxZ/ZUfhpLvwj4ctdK0250WWIQ6kmpWUj3Jvry+X96biSQLBPHC8MaBXV/6GxHgADtUtPCeIWZYdpYbkjGPwx9nCUYLblhzqXKpLSdn+819pzXZpmGa4rFVJVq9WTlLfVq/a6Vlp9lWtH7KR8ceEP2A/2NPA9zo+peH/hj4bS+0LSYtEs72TTLaS6Sxij8pYmmaMu/yZUsxLYZufmNZnwo/wCCef7InwP8fWPxM+F3g9dM1bShcDT83t9PbWIulKTC0tJ7iS2tgyMYwIYk2RkomEJWvtqivJnxbm0ozhLFVLSVmueVmtdGr6rV6eZ5qowWyI1HHHFeF+MPEHgey+NHg7w1rWvXtlreoW2qPpmlRO4tb5IEgNy0yKhRmtwyGPey7d52g9vdznHFfMnj34XaH4m/aU+H3xSvNdis9Q8K2GuQ22llV8y9j1BbWOWRcurBbcxJu2o2d4BK8Z8zLY0vaNVpWXLLbvyvlXo3ZPTbsdWH5b+92f5aF/4b+MPh/rnxv+IfhXw1Z3cGt6I+krq88rkwTtPaeZb+QvmsFCRfK+I48t13V9G183+A/Cfw88M/Hrx3q+h6jczeJfEcGkX2qWco/cwxQRSWdq0H7scSCF9/7x/mXPyZGfpCqzJU/aL2V7csN+/Kr28r35f7th4jl5ly9l+SCiiiuAwPMfiUMnw+PTWbX+T16dXmXxIBaXw8qj/mM236K5/pXptABRRRQAUUUUAfmv8AtNf8pFf2Yf8Arn42/wDTXb1+lFfmv+01/wApFf2Yf+ufjb/0129fpRQAUUUUAFfkl/wWd1DwhpH7G8Go+I/EGu+F9Sg8W+HJfD+peGdBj8SaxHrKahE1mlnp0uI5ZJWBhIb5Sjsm1twRv1tr8+/+Ck3wd+OXx2/Zq/4Vx8Bbm8inu9e0Ztbg0vUjo2oXegx30TapbWeoqC1tM9vu+ZdrMoaNWUuGAB+Kv/BB3x94M+Gf7RnxJ/ZtvNJ+Lep+KZdK8PwtrvjXwUPDWn2um6dDePp1g1tbJtsionn+ztctm4QbYztjVa/qur8Kv+CHv7N37X/7Onwy8WaR+0rba5omi3p0tNG0bxJr/wDwkN+l5bW8iavqCzebP9ltNQmMTw2nnP5expCkZl21+6tABX5ceAP+Upvx2/7EH4c/+lviuv1Hr8uPAH/KU347f9iD8Of/AEt8V0Af/9b+sD/glL/yQbx7/wBle+J//qY6rX6cV+Y//BKX/kg3j3/sr3xP/wDUx1Wv04oA/ne/4K8fH34u6t8a/BX7Iug+DvjcvgzV7e/u9f1H4XaZpM51mFIYmhs4by7keWERtvW4CLbyYZSrMu0133/BHT9g34MfAWK9/aP+Cfw08WfAi01q2v8Aw/ceCfEeoT3c2oJa6gJLLXb+KW4uFhv5olZSkbEKshXe4AJ+cf8AguU/7L37NdvafEf4l6T4t1zU/HDa3rKw6Z421jw/Eb7SNJgtbOztobKbLtfXRs4BBEoUb5rjBYEN+hf/AARg8QW+tfsS2+jnTW0u/wDDniLXND1KIeIr3xXbve6ffSQzSW2rX7NPPAxGVVj+6OYuqUAfrNRRSfSgBaKKKAPzC+If/KZH4T/9kf8AHn/p98KV+ntfmF8Q/wDlMj8J/wDsj/jz/wBPvhSv09oA/Bz/AILWfE79mPwZrHwO8DftbeGfDV74L8X614g0u+8R+LZbm20/RYpvDl9C8YntSrRT6ispt4y2VADMoEqRMn0p/wAEU9a8LeIP+CWnwY1bwZ4UtPBWmvoZSLSrCS4ltV8u4mRri3ku2e4eG8ZTdI8zNIyygsScmvxW/wCC03jb9pvxB+2Gf2ctS8N/GOb4deJYtMn0m78A6LpfiTT55LGyvZ7wCx1CExrOJmhEiPKp2RiVSMbZP6K/+Cftr4hs/wBjP4fWPiiTxO99BpYjlPjOxh0zXhsdwq31lbs8MEiqAAiEqEC4oA/mL/4LS+J/ibpv/BQRdI+DWva9qmvXV14Yt18IWvwm0vxBY3kFxNbxXJ/4Sa6imcP9naR9jKRHsEY2fer+x3wr4R8M+BtBtvCvgvTbXSNLsgVt7OyhSC3hUkkrHFGqogyScAdTX8TH7afwp0X4V/8ABUn4m+Fviv8AtD/F7/hDfGf9h6v4hg0LT4ZdM022imkubbR72/Zt7BImMkAt4d8NojNK0jDA/uLoA+FP+CkHxZ8bfAn9jHxn8VfhkXXxJpY08aVHGMma9nv7aC2t8DqJ5HWEjoQ2DxXjf7PX7Y3xs0TxbpXwq/b98MW/gLX/ABtIl14VvLLzbjSpheZkTRLm82COLV7Qfu2Riq3WA8GTuRe6/wCCmobUvgF4b8G/dj8Q/EPwLp8rj7yRnxLp0pKY7/u8e2c9q+tPjP8AA34aftDfD28+Fvxb07+09FvXglkiWaa2kWW2mSeCWKe3eOaGSOWNXR43VlYZBFfp2AxWW0MgoUMdhk/aVKl6i/iRio0lHl1UWk+ZuMlrspQvzLhnGbqvleyWnTqct8Vfhx8Av2lLC++CvxRt9M8TLpU+n6neaTLKkkluwkMtpJPCjB0SQwuF3jbKgdMMm5a9nVtM0w22mpJFb+ZiK3hyq7giFtka99qAnAH3R2xmvzkj/wCCXHwo+H3ieLxx+y/4s8S/CbW5raa01bUNGnt9RutYilkSVP7Ql1231J55IGUiCVj5kaM0Ybyztrz34xf8EtY9Q8JJ4/8Ag34412X426Rd295onjfxVqE+qzWjK2y4iW2+W1it57d5Y3gt4IkJZSRlVI8uhw9w9Urx5Mc4xlZXdJ3i9rzs2lC+t4SnLl+xfQ6XjcS6XspL3YttK+mttvNpK+i2Wuh+pdxovhaPxHF4uure2Gp2trLbxXTBfNS2do3mQP1EZaOLcOnyrnoK1YNc0S8W1a2u4ZVv4zJbGORWEybd26PBO9QpByMjGPavyJT/AIIzfCa+1CzvPFnxM+IeuxWtnBpTQ3uvTOsulNufUtMkONz2mqTeXLcoxLjy1SJ44gIx0+sf8EfvgCddm13wH4m8WeFG06MnwjDpmqyrB4SuJXLXcmjRPuSKO6AVJbeQSQCMGONI1Yit/wCwuGk+X+0ZevsNOy/5eX7X0skpWu1FSy9rW6x/H/gf1p8vvvTfEfhzwfP458S+L9QttL02x1RHubu7lSCGGMadZHLySEKijPUkYrr/AIefEX4e/Fjwna+PPhdrmn+JNDvt32bUNLuY7y1m2MUfZNCzo+1gVIBO0qQeRX5x/Cb/AIJc/sjaV4v1Q3Gm6vqmneH9ZgddI1TWtSv9Iu7mLT7SRLy9025uHtLi6Esjy+c8W7zDvOSBj1HxJ/wT08MN8QNX8Y/CPx74s+GOneJZI7nWdD8JXFnZ6feXka7Pte2W0nkt55FCrM1tJEJQi7wzDJ4JZfkLThTxM79HKmlGy+zaM5u7Wz26Na3jXNU/lVv69P6+4+vfDvxZ+FPijxNqPgvwx4m0rUda0eY299YWt5BNdWso5KTwo5eJ8HOGVcDtithfGvg2TxjJ4Ah1eyOvw2q3r6YJ4/ta2rsUSYwbvMETMpQPt2kjAORX48ftd/CT/gjX+xN8GtA8P/tgRaR4Tt9XubyHSPEl/HdXGvyajKzXU9zHrEKTX4u97mXzTKDngfKNtM+AH7G/7B37Yf7NEXxd/Z/+Imp+NPEGr3F1Mvxb0+/ZPEx1BV+zyiS7VIykUaARHT3iW3EYVfKzhq1hlvDkm/8AaqkVsr0o/wDgWlT4e6+JaKPNraXKp/L+P9f12P1D1X9oL4AWHwsn+P2p+KNK/wCET0+zudROrCdJIEtrVvLuJEZckiN/3bBOd/yY3ELWN8QP2oP2XPgZ4b0nXviV430DwxpGrTx29jPd3kFtbSSTRfaVAdmCBWi/ebidu0hs8ivxu1r9nT/ghV+zp8TdU8L+P7iyg134Z6j4bi1HTNRl1C6trCbWYlj0i2ktSr25hv5lF20aqUkugs0oyi7f0X/Z9/4JdfsU/s1eNZfiJ8M/CSnWpdPm0g3N/PLekWUsu7yVSdnjVUjWO3TaoKwRJFnauK7cRhOEKacqVevNq9l7OELroub2kuW1tZcsr3soq1yFLEvSyXzf5WX/AAD2e3/bb/ZNufi9dfAuLx/oo8T2Wmpqslq11Gqm1kj80MkpPlOywgTOiOXSFklYCN1Y/kt/wUV/bg/Y2/aR+Dek6J8OfGniDVbLwnreneMNQ8T/AA+sbbVz4Z/sW7Js7q/S7ilt9st2iqkRjd5IszhfJXfX6qJ+wX+xWnw8k+ECfC7w1/wi8+qHW20w6dC1t/aBZWNwEK4DYRU4wBGBHjZ8tfR+j+BvBXh9LmLQ9IsrJb8ILoW8EcYmEUaxJ5m1RvCRqsa5ztUBRwKxp4vhijNT9jWqpaWcoQXZvSMt18K+w0ruom0nKNd7NL5f8N/wfI/lC+Ln7M37Dvxs+FHhzU/hx4y8WfFb46+LPF2oX1zHf2Ph648T3d/cabDp+pW+q6NrVimmabBpthbW6x+ZawrbvFCVaRpf3vvngb9nj/gnu3gLxJ8aPFXjLVvhxceB/G3gnxX4i8M6lFp9nqGh6n4F0qHSdO077HawhXivIoVkhNqjJcFl+x/IVUfrJ+0h+1n/AME5f2Hfisvjn9onX/D3gvxt4l0zc941oZNVuNLsn2+ZO9rBJcC0hY4EkuIl6Z446tv+Hfvx9/aM8Ja2q+EfFnxNsPD6eK9AuEW2u9Ri0S4ZIodRidQzC2kaVfIkPykkmI8EjN5hw7K1L6vUjHfm5053/k2UOW1oqXLzJ++01amPkrb3X3f1/Wnmfzqfsu/BT/gn/wDCXx1qWh/FLxD46+HPiXVfF/grXjo2uaBp2j2S/wBl6omp6Nc3g0O0XS0m1CUpFd3VyYZ1yImSJhz9T/G//glhqOoePf2ffCNjqqeKfhb8O/iDqPiS+1/UL+3t7uPT7/Uf7RPhcWljaIt5a/2tb2t1LPcTggQMjAlUr+ij4hfD3wZ8VvAusfDT4g6dFquh69ay2V9aXC7kngnXY6MDzypxkcjtgivyMg/4JB/s1/DGy0Dwjean4k8U+CEv7FF8Ja1qk91oz30rgXuoXFqCiXE12EVnSYNAkpkljjR5Tjaa4ZxdN1r1MNJW91JVYyVteR/u3Gz2jLm0+3dWa/fRaWjX3f1+Hp2+Kf2/PEv/AATM/wCCqnh3TZfHvxX1/wAPT6fYaz4bHhWx0iPUtSv/AO0JUj+12GmTWN9JLNFNaBYdQsVcIhliEil2K+z/AAX+KH7AfwJ0r40eALfxL4u8SSfG3UW1C7+Hd94cvrTX/tl9psWm3YsbKWztrx472GCNg0x8qHYSJEUOa/djS/Cfws+E3hiN9D0/S/DWj6DaPGhhihtLeztV+dlXYESKLjcwGF4zXI/s9/tD/Ar9q74ZWvxq/Z38Q2nizwtezXNvbanZbzBLJazNBOELKu4LLGy5A2kjKkiuSvmHDvtG6WEq8vS9aHyvah+vzKhCt1kvu/4J/Px+zR4N+JX7Jd2vhF/CHxpuviDrkeiWVpbSweHpI9S8K+H7C8sNP0yfVrArplilh9tM88800N60oh+ZkPl15X4b/wCCfH7dFt+0ToH7YfxR8JeIfHMnhbW/D81vYazrHh5fFcsPhy11JNO/e2gi0l7VG1OZJ/MmN5NIRMHjVBE39ZnkAkE4/wA+lL5HY9Kn/WjAQX7vLqeu93Ua/wC3f3isvvlfaSVkrVKXWX5f5H88f7MWo/sUfsyy+Dv2i/BeveJNc8Y6X4Zuvhbb+Aza27eI2vJNXk1q4tptOj2ul1by71Z2dbUQr5u/aVc+i/Cz4KfE79ub9sy8/a7+Ltj4o+GukfDnW9I0u08FawsPlak2j2U94l1KsUksTNDqGpLJa3UUjxlImXALlk/ZOD4M/Ca2+IT/ABdt/DGkx+LJIfs8mtLZwDUHiwq+W10EEpXCKNpbGFHHAr58+NGkfEe4/am+DGo+Fkv/APhH7WbX/wC22tjILVUfTttt9qCkJzNgRbx977vPNe7lHFODwftqeUU/ZyqU5pzm03FW5nCCso6qPKpNc93dcuxUMF7WSU5WS1+5f1psfZIj29Kmoor8uSsahRXg/wC0B+1D+zr+yn4Sg8d/tJ+NdG8D6PdXC2cF1rN3FaRy3DAlYozIRvfaCdq5IAJ4AqTwD+07+zp8U9D8K+Jfhv440PXLHxyJz4dlsr+CZdU+yq7ziz2OfOMKxOZVTJj2NuA2kBgN8UfG/SPC/wAdvCPwHmsppr7xZp2ranHcKVEUEWkm0WTzATklzdoF2jjHPGK6r4bcnX/+wzdfpsrwr4h6l8I7X9r/AOGVn4o03UG8ZXWkeIU0K/gYrZR2y/Ynvre5USruaTELw7omA8s8qevuHwxYY1//ALDN3+myvRxtGEaVGUItXjr5vmkrryskumqeh0VopRhZW0/V/wDDHqNFZmq6xpWhaXc63rVxHaWVnE0888zKkUUUa7nd3bCqiqMsxwABk8V83/s7ftt/sh/tcXGq2n7MXxI8PePJdC8v+0I9Ev4bt7YSlhGZFjYlVcowU4wSpA6V5xzn1HRRRQAV8v8Aif4l6TY/tWeEPhBPoVtcXuq+HNc1eHVnK+faJY3GmwPBGNhYLP8AagzkOv8AqlyrZ+X6grwrWvDHgm4+P+heLbzQ7yXxDZ6HqVraaugk+yW9pPcWT3FrIfMEQlneGB490ZbbE+1lG4Hty+dOM37VXXLLbvyu3bZ207dHsbUOW/vdn+Rw3if4xeKvC37XPg/4I3MNqPD/AIt8OazqEM5Vhc/2lpVxZDyVbfsaN7a5kkK+XuBi3BtuRX1dXlPi+yux4l8N65pvh211i6t7t7eW9meOGbTbOeFjNPAzxuzlnjijaJCm5WyThMV6ksisAV5B6VOKq0nCnyRs1Gz83d626aWXyuFWUWo8q6f1+FiSiivnfxt+11+yr8NPihp3wQ+IfxJ8L6F4y1YwrZaFf6vZ22o3BuG2QiK1klWVzI3yxhV+Y9K5DE9D8fD9/wCH/wDsLQ/pHL/hXoteReJvE/hzW9f0/QtKv7e5vtK1a3W8topEeW3aSCV0EqKS0ZZfmUMBkcivW9woAdRTN4ziqGraxpWg6Vc65rdxHZ2VnE8888zCOOKKNSzu7NgKqqCSTgACgDSorz74YfFf4afGzwNp/wATvg/rth4n8OasrPZappc8d1Z3Co7RsYpoiyOFdGUlTjII7V6DQB+a/wC01/ykV/Zh/wCufjb/ANNdvX6UV+a/7TX/ACkV/Zh/65+Nv/TXb1+lFABRRRQAV+WP/BSj45ftFfAPwX/wsfwx8QvBnwh+GunparrHi3XtJ1HxJqMdzdXPkRwWml2ZghVSDHieWWXLNtMKhd5/U6vg7/go14t8WeB/2Vtb8R+CPEXi/wAK6hDc2SpqXgbw9H4n1uNZLhFZYNMlguElRwdsjGI+WhLjG0UAfAX/AATQ/a/+Pn7S3jy+tPhv8fPBH7R3gfw7Lb2/iW8j8Naj4P1zSXu4pnt5I0Jnsrze0WGh2QMqfN5nRH/e6v58f+CJcfxg174rfH74o/FPUfiF4lh1658Nxad4i+IPhqPwhc3iWdncJJbxaTFBboWtiw8y8CDz1khi25tyW/oLDqen0oAfX5ceAP8AlKb8dv8AsQfhz/6W+K6/Uevy48Af8pTfjt/2IPw5/wDS3xXQB//X/rA/4JS/8kG8e/8AZXvif/6mOq1+nFfmP/wSl/5IN49/7K98T/8A1MdVr9OKAPwG/wCC4vxX1fwFP8F/Dl14qi8D+G9U1rULvUPECeBh48vbC5062jlsXtbJra6W2ZpHKG4VPMUldnG8j7f/AOCWmueHvEX7Hmiah4U8cXPxBsft2o7dZufC/wDwh8krtdSPIp0jyLXytsjNmTyh5xJkJYtmvz8/4OFrj9qn/hQXhnTf2atY1m0jum1WG9svDniC08O6lPfyWoTRpTLc3Fq9xYwXZzdQQSh33Rko6Aiv0W/4Jo2v7Sq/swpq37Uw1GDW9Y13WtU0yy1q7tr7U7HQ72/luNLtL25tC0Ek0Ns6j5GYRrtjBOwUAfoPXxT8Xf2+/wBnf4MftdfDD9h3xLez3PxD+LC6hNpNhZxpKLe2060mu5Li9JdTDFIsDxwkKxkdSAu1HZftav5hPir/AMEgP27P+Hqngv8Abk+H/wAW9K1rQ7nx7e+I9UF/oEQvdF0gaTNp1rpsdw18WvIPs0klpAsccIt5biS82vIzBwD9Jfh5/wAFev2ePiR4Z+IvxI0rwr42svA/wz07X9T1HxZe6KYdDuYvDc7296ljd+aRNKWik8pNqllRiduK+m/2RP2wNA/bE8FXPj7wv4K8YeDtPiMH2f8A4S7STpT3kU8fmJNaqZJPNixwWGMHjFfzv/Df/gkR+05pur+MX0L4MfDz4fafP8OvEPhbVdHste1S40Lx7qmo6jHcWM16kTrqFvBDbxyL5txcPco1x5a5iXj9MP8AglX+xX8Xv2abv4y694l8KWPwb8MfEDUdKn8N+BtB1JNTttB+x6alrfXUT+ULVJL65BlKrG2QiGQseFAPbfiGR/w+Q+FGO3wf8d8f9x3wnX6fV+N/j74e+Jo/+CvHwt0s+NNaaST4SeOJFuCmm+YoTW/CoKAfYfL2tuydyFgVG0qNyn9Lv+FX+LP+h+8Qf98aV/8AK+gD+Xz/AILw/D/VP+GsvAs17+z34s+J3hPxVCjazrmg+K7jQ4kk0y0vltrONo57e3sJUabzJJLktFcoyxp++VQv7m/8En9A8YeFv+CeXwx0Hx54ei8KalbadMG0iLUm1cWkX2udreNr55ZzNJ5JQyHzXw5K5OOPyk/4Lu/sXW/7T4+C/wAJPF3xLtfN1HVfEB0rTvGcfl6Reapb6HPdWQe6sLKO3ikWaBVxdt89vJceTukAVv0j/wCCaX7JPxU/Z7/YY+HXwa8YeOTaX+hafJAbXws1jcaRbRtcSyRW9pPc2LzzLDEyRtLIxLurN3oA/kb/AGuf21f2f/21P249C/aX1f4JXFza+Dr77V4qEPjM6fBqHh7TPEX/AAj+jyXlhEm251Uzi6lSxyspgUR5kTDD/QzBBr8or3/gjL+xDfeJtU8YTaDGNR1vxJaeL9RmWw0hftetWPnm3vJ1GnhZGja5mcKwMZd2coXO6vvf/hVfi3/ooPiH/vjSv/lfQB8pft6XLXXi39n/AMIQfNNqvxS0uQRdpI7DTtSv5Ce37sW/mD/aUV9ha98bfhF4W+JWgfBrX/Een2nizxQtw+k6O86C9u0tImmneKDO8xxRqS742rwCckA8Xq/wCufEF7p2p694w1e9udInN1YSz22jSPazmN4TLAzaaTHIYpHj3qQdjMvRiK/BrxV/wbPfBbVv2+7L9trSPi34/j+3Le/29aS63drqkslzA6RvZa1A8V3BGkhXdbtvQx5VSqgJXsY7NlWwmHwsY29mpfNylfT5WXyIjFptn9NWRTdo6nFfjwf+CKH7PP8A0U/4yD/uoniD/wCSqX/hyl+z8E2D4pfGXH/ZRNf/APkmvHLP2GG3HSl2ivx+H/BFr4CKMD4p/GX/AMOHr/8A8k08f8EXvgQv3fir8Zv/AA4mvf8AyRQB+lXw+cDxP425H/Iaj/D/AIlljXqm5e1fiB4K/wCCPHwT1DxD4qtf+FpfGKEWGqx26tF8QtfVnH2Czl3SH7SdzZfbn+6FHavRU/4IzfBNP+atfGj/AMOJr3/yRQB59/wV8/4J7fGv9vPx9+z7H8KNbv8Awrp3gbxVe6nreu6NqA03VtNtp7B4I7iwcglpllKnA/hznrX4TeGP+CKP/BTHwl8BfCvws8R+FtG8UQeGrXxvYXWn2vi280uPUtf14h9M8ayzqXea7iB8uSGQq0XlK0KjeRH/AENj/gjV8GV4X4u/GkYx0+ImvDp7/aM1IP8Agjf8Hx934v8Axp7/APNQ9c79es2PoMYHYUAfhb4m/wCCJH/BR7U2+ID+MtS03xnrPiJfgr/xOp9RCyahN4GhVdallMwEmQQRE8vzz/fbDE49M0n/AIIu/t4ePv2tdUuvjNqnkeHda8V+Nr3xF48tfFF9Le654W8Q2f2fTNFTRmXy7Z7FyrqT+6tzGGhJIUN+xQ/4I6/CQYI+MPxrGDn/AJKJrgHp2nGOOwxVj/hz/wDCodPjH8a//Dh65+XE446cGgD8AtR/4Iof8Fa/FH7NlvrnxK8Z22sfEmLxb4Zs9S0i11iSGy1LwX4T03+zrSESPmJp7mdjfXMNxiKVwpb5kUV9N/sp/wDBGL9q3T/jN+zpe/ta3V1rfgb4c6T4hk1XTZPE09wbW+n1FL7RbR2tls/tttblAfKZXgQYhYSxLz+sA/4I/fCxenxk+Nf/AIcPW/f/AKbc4zxnvSf8OffheMbfjP8AGwYOePiHrY/PE3I9R09qAPhH/gtd/wAE2/2qv2wPjhoXxS/Zv8J2F3eab4P1DRbHxHpPia78K+I9N1GWUy28c8g86yv9ILYaS1a3WXJfbIAa+VNe/wCCOX7eHgz9pbUf2jNI0rQvHHi7XvgDb+Cb/Wp/EF/pNs3jOO2Fpc3LQ2UlrMltcWsSQR/ZTAA7+fiOTe1fs3/w6B+GfGPjR8bRj0+Ietfh/wAtu3bGKX/h0F8Ns5Hxr+NwPbHxC1oY4x2l796AP5gfih/wTd/b+/ZT/Zi+K2p/Fu7l0Pwb4q8T/DfULbQrLVdVv7Fo9INxDrVleNotvc3Nhb3TtCxuY4J87Y/OkZwXHi3wX/4J2f8ABRf9qT9mrSvGvw7F9a+CI/jN45uk8J3+p3trHqGnajaWNpo95Z3GsxLNc21tLbzxwyXcaSqD5qpvL4/rq/4dD/DnH/Ja/jb6f8lC1noO3+s9h+HFcV4z/wCCS/w8sDpI/wCFz/GiXztRt4v3nj/WDs64ZMSgBhjryM9qAPoL9mr9i1JP+Ccvgr9jH9tiNfiIbPRrK016DWLk6kly9pOtzDBPP5cH2pLdkij3NEolEY3qQSK8q/4Ilfse/Fv9hL/gn14d/Zs+N1pZ2HiDSdX166eCwmS4gSC/1O4urba0eF/1MiZAAC9Ks/8ADovwCPu/G/43j7v/ADUHWP4en/LTp7cUo/4JG+BAMf8AC8fjhgf9VC1j2/6ae3I/DpQB+suRXCaN8UPhz4i8aax8N9C1yxu/EHh4QnU9Nhnja7sxcxrJAZ4AfMjWVGBjJUBh0r81/wDh0d4F/wCi5fHD/wAODq//AMXXwz4J/wCDcrwBoH/BQ3UP289e+NvxFvLq3isY9Gh/tu5fVAbaCOOT+0dWnaSe6gdkwtqAkQjwr71O0AH9I+8Yz/8AWr8Ef+Ch37VMXiD9qjwz+y18B/ipb+FvFumaPe3WrImo/ZrdLi+urSDTba7eLftnlWK6MULJv6cBX5/Wjx18AtV+IfgvVPAeveP/ABPDZavbS2k72E1nYXKxzLtbybq0s4riBwD8jxSK69jX8L3xK/4IyfB3/gnT+3t4v1/wl8Sdc1HwxYaZoOuy2k+uXmkeJPI1/WX0m5WC70t4JL0W4PmvIRF95EYNuJb73w3wFSvmaVKmptRlZPa7XLHo/tNJab22Wq9rh+nKWJXLG+j/ACsf6EvmqBzUmRX88/7SH/BML9nj4I6D4X1Ow8YfFjUX8ReLND8OMk3xH8SKI49WvY7Z5lxeHLRqxdR046gdPotP+CJH7LrAH/hPPi3/AOHE8R//ACbXxMsJONKNZr3XdL5Wv+aPJdKSipPZnB/8Ft/2R/jH+1V4G+GLfBzwTq/i268JeJW1J7zwr4kh8NeJtG3W7RLe6VPekWMrqGZXinZTgrsK8kfjJ8Hv+CS3/BRrw18Sf2Nvjt8cvCEuuah8M77xHa+IbDw3rWn6HPpFle3ST6NPdiyktbO6ZHeR9TFmrtdRKInWb+L92H/4Il/suInzePPi1/4cTxJ+n+m5/wA+1eNfBf8A4Jc/sY/Hbw/qfibwf42+McVtpWtapoMwuviD4iRjc6RdyWVwyhdQYeWZIyyHgkbSQp4ExoTdN1UvdVr9lfb8n9wo021zJaI/nc/4UJ/wUo+D2r+Ltc+Ok+r/AAo8b6h8MPGl3a3l54jvvEEdpMpdnm0+Qatrl2WkgMIkltooJ02tJ9mVIRI3kn7IngL/AIKL/tifDj9obw1+wn4p8RXmj6Zr/wANpWto/GF5q0d9Yw2l5Jr9lp2tXN3YhriadoLm4jjvbNgo+zmWLhT/AEVfFz/gl58FPh9+1F8KfhXb+LviJd+HfiBPqVjcNJ8Q/FI1G1ubHTbrUEljI1DyjAy23lsuwHJznHy17x8Of+CLv7Luow6wg8ZfFSBbbVbq3UQ/EHxIgIiYAFh9uILY6nv3HFe1nNSo6GF51ZKGnmvaT12Vtbq3l2OrFt8lO60tp97ND/gnL8Af2wPgT/wTa8b/AA5/a10rUfiZ4iv59fudK8H+ILu1uLmXTLmHbbaHPdz6lqluYJmDqvnXs3lRS7XdttfKn/BE/wDZa/bB+Gn7SXjb48/tufA8/DnxTrXh2HQtKu9L1PQT4b0fQtOukNj4e0fStJlmniRUPmyzzsdxiAGD1+4f+HJH7LZ+944+LJ9v+Fi+Jcf+l3SlP/BEr9lzqPHHxZ/H4ieJT0x/0/Y7enWvAOI/YbPFc34v8X+HfAPhPU/HPi65FlpOi2k19e3DAlYbe3jaWWQhQThUUkgDOB0r8pk/4Io/stIMf8Jr8Vj/AL3xC8Rn/wBva4/4k/8ABDX9nDxl8NvEHgvR/G/xHt7vV9MurGGe78aa7eQxyTwtEjywSXmJkUsC0ZIDAbc4oA/Wn4W/F34XfG7wHp3xQ+DviDT/ABP4c1aMS2epaXcR3VrMh/uSxMynHQjOQeCAa+ZPHnxc8SeGP25fCfw6vtZTT/CFz4C8R63qEMwiSL7RYaho8UVxJM4DIIoriYffCDflhkLj5E/4Jif8EUfgX/wSv+Ht74W+BHjXxXcarrqxHWb+6ubdobqWL7rRWLwSW1uBnAKqZNuA0jYr1z9tz/gnP4c/b9+H8v7Pnx/8Xa3deAby3kluI7K5jsNQGoI8f2Z1e2gSGW3RDLvhnjkRnMZAG2u3AYiFOTc4p+7JfNxaT26bo1oySeq6P8j6jsPE3wK/bd/Z41O4+GPiaLxD4O8Tw3+lJrGg3ZCsYpJLSd7W7hI+aKVGCyRnbuXIJFeX/sN/tBQfEv4c/wDCo/iJ4o03Vfir8PR/Y3jKwguoJby3vLY7EnuIYmzGLuIJOp2hf3mOCCB+Evhn/ggpbfsf+FPgj8Cfht8UPEt3ojeKtRstdnbxHrujfarC6jvr+2t7Sy069W1tZgiYedF/eTxofLCSSAehfsu/8EJP2MvgB/wU18UfHBviJ41v/ibsj8UaHbNfzpHaaZM7Wf768uPPm1SQSRfvxNJ5aq8YaHaVJujWqyw0sPGN4p83pbT5J3V/RdioSk4Oml5/1/XQ/p/kmjiUvIQoAySeAAK/hu/4KOfsW/tVftN/t1+Ov2kP2AvhvL4mbxpqXhxLPxHDqfh7xL4B12Tw8/2G7k1uy1JBcabcab5bwf6J5+XiJjEcp31/UV+2/wD8E+tM/bq/Z91f9nj4g/EzxpoWmaqhDT6Fe22nSE7GUJOLa2iFzbnP7y3lzG+B0IBH57fsPf8ABBCy/ZT/AGadD+A2ufH34peboc+o7D4W8UX+haW0FzfTzwGLTo3kjt38qRfNCMVabe+Tu488wPy7+Kv7HX/BQP4FeNf2rovg54L+IOoXvxK+J2ja5ouraV4mNvbXekXKK11JaKt9Bcm6gYMjxrLZyPahbcXCxqAPlL4peL/+Cn37K3wY+F/hT9tL4geLfCWlQfE3x55Wn3vi+Hw7q1/oSaNZzeH5P7Zn1C8R7bT7trhmtZ9TuZGX92n2rYhH9PPiT/glL4as73SEPx4+N8vn3wTL+PdSO39zJynTaeMZHbPrVvxH/wAEbPhj4wsBpXi341/GnVLUMH8m88c39xHuH3W2SBhuXoD2/OgD+Xb4c+Af+C7/AO0b+zb8Cfir4V8U/EfVdF174ewS6Vqei3zPfWviCXWrh2vdUjutd0VZvNsHiMM179ttvs/yLCPv1/TZ/wAFQv2Tf27v2vf2YvBfwM+DuueGHs2MU3xCstblvtNTxBHbwIVsI301ZZIra4uQxuYQ674wsXmGNpA3dR/8Ek/CkKLFD8evjkqJ91R4/wBTAHAGMA4xxx6VIP8Agkv4XB/5L58dOmP+Sgap/jQB41/wbz+Cvin8Ff8AgmP4P/Zu+O8Wl6X40+H11qGmajoljdR3N5piy3kt3FDqaxs6xXTrP5uxTt8l4znJOP3Gr+br9lz/AIN59J+AP/BQPxf+3rq/xw8eX+o6rexyaZZw6rL9omt44Yo9uu30weTVAWQkQuixBdqneFr9/P8AhBfEn/Q4av8A9+tN/wDkKgD4f/aaI/4eK/sw9v3fjb/0129fpLvFfk/+0n4Q8QRf8FCf2Z7VvFGqSNJH402yFLENHt0u3zgLaBTu77gcfw4r9QNH0PUNMsXs77U7nUmZiRNcCFZACMbR5EUS4Hb5c+9AGfD8R/h9canrWiW+uae954bSOTV4FuYjJYJNGZY2ukDboA8YLoZAoZBuHArj/wDhon4Af8Kw/wCF2jxxoB8GYz/b/wDaVr/ZeN2z/j88zyPvfL9/rxX8ifxl/ZH8bfCT4L/8FIvgv8GbPxR4mhl1D4fXbTX893qmra1YCxsLzXz9pl3S3jzW5u1dIyFGfJRY1VQPKE8JfDBfixH8e77wVLJ+yEf2iJtT+xLoFx/Y4tj4J/s+G/8A7I+zhvsSavlGfyPKM3J3GgD+5jT9U03VbGHU9Knjuba4jWWKWJg6PG4yjqw4KsPukcEdK85+K3xl+EPwK8Kv44+OHirR/B+iIwiN/rd7Bp9sGY4C+bcvGm49lzk9Bmvzq/4IaeC/iH8P/wDglF8GfCnxQsLzS9Vg0m4dbO+R4riCymvbmWwjaNsNHts3hCoQpRcKVUjA1P8Agpz8Lvgdovw2uP2rvFC/DHQfGnhtLLT9L8V/Fez+3aJpcEl4rMgRpYvJkmZiqNE8bPJ5e5mCKoAPzJ0n9sz9rrxz+2d8XfGP7AMGnftDaV4rk8Pz+Gr/AE3xlpU3hbR/Dul2qvqmnTWMdx9ostYvblbmKK58t43ee2aQrHA4b9hv+CZPgf8Aaf8Ah5+yPpXh39rc38fiv+09XuIbLVtVTW9Q0/Sri/mk02wvNTiAS7ntbRo4nlBYHbwxGK/L7/gkp4g+HP7X37Q/xG+IPxMtvg3418W/Ca50f+wPG3wk0uW0t2h1e1uRPBNqLTyNcS4hCS2oJiiXyyd5cbP6QwhH0oAkr8uPAH/KU347f9iD8Of/AEt8V1+o9flx4A/5Sm/Hb/sQfhz/AOlviugD/9D+sD/glL/yQbx7/wBle+J//qY6rX6cV+Y//BKX/kg3j3/sr3xP/wDUx1Wv04oA/kz/AGj/AIKT3v8AwUf+OvxM/ax/Yw8T/tK6Lq0+g2fgjV4LbSb+wsNItNJtxcW1tFqN7B5G6/e4dykYLNkk9K/Wj/gjD8N/iZ8JP2IYPAHxH8J6z4DgsfE3iNtA8O69Ikt7pXh+bVJ5tKs2eOSVNsFo6RoqyMEVQoJVRX6vFH68U/Z6UAPqLYc1LRQBHsOcmjZg8VJRQB+YXxD/AOUyPwn/AOyP+PP/AE++FK/T2vzC+If/ACmR+E//AGR/x5/6ffClfp7QB/Lx/wAF5dL+N/xF+Mfw4+H9/wDAz4b/ABc+FekW93rF/deNPEh0I6dcNG9uWmla4t0tIDJ9nWO4ImWSSQW+2NyGr9jf+CYvw68a/Cj9hD4b+BPiDo3h7w5qdlprE6X4Tna60a0hnuJZreKzneSYyokLxguJHUvuKkrivxO/4Kif8Eaf2p/2uv2/Lr9orwjB4W8WfDy80zSL680XX7u6iubq88L29/JZaB5UarAdK1K/nt5bpmkBBBPRQrftn/wTF/Zk8ffscfsHfDX9mz4p3lpfeIPC2mtDetYNI9pFJLNJP9mtmlAkMFssggiLgN5aLmgD74ooooAKKKKACiiigAooooA8m+HLD/hKvHQ9Ndj/APTVYV6zXkHw2/5Gzx5/2H4x/wCUrT69foAKKKKACiiigAooooAKKKKACvPfH8e9tDA/6CtufyDmvQq4PxuCbjQx/wBROL9EkoA7yiiigAooooAK/ms/4Kb2nwb8U/8ABRDwv4H+NFr5unzeALmZri1uFinsYo9Tiuv7RlN/5enwxWUdlcyGSN2uHXcpU7Yq/pTr+UL/AIK3+If+FQftw+Jfj1ov9sR+OPDPw+0HVfCx08s1o9tba9JFrCX4g3TxQyWsuwO3lwsnnKzltqH9Z8F8JKtnPJSdp8klG2nvStFfJXu+yV+h9DwzG+I03tp+R++37W/jDwf4T8OeBLrxp4dTxLZah458OWMStOYGsrq6vESzvkCqfNaC5MTeWdoIzzxtP1/AGCDIr+d7w94T+Jd/4Y/Z/wDgZ8Wpb22j8AeNvCsviJbR/PW3vk0y9v7GKSZPNV4ZL2SxRjyvz43JgOv9EUTZHNfJ8TZTTwVOlQjPmd56r4WrpRa1a1Svp0cfU4Mfh40lGKd9/S3T+vQiuAD0r5J/Y18J/Cjwj8LNTtfg54lfxVpV54l16/uL2QozLqF1qM0t7AdiIB5Fwzx425+XrX1ncyR49P8AP+FfmD+yF/wUCsfij+wnN+2h8d7S30CwtLu+S9TS4ppUjggvDbJJsJkkJI2tIc4HLcKK4cvy/F1sBV+rxvHnpxaX8zU+RWtd7O1rW+atnh6FWdKXs1pdL562O38a/A3WdV/4KQ+EP2hNa8IvrOj6P4Wm0fTNYilgH9kahPJdSXEssTzJKUlt9lupjjk+abG0KGZfrr4Sg/Z/EH/Ydv8A/wBGD/Cvib43/FO78Pft5fC3wB4F1nWftt7NCviTSohLJpv9j3Ona8bKYrtMUcn261w8ilWISFWONor7Y+EbZtvEOe2vah/6MrbiBYj2WFdfb2a5VrpG8u/36WTTTtqXjlPkpOX8uh67RRRXzR5whOBXK6b4v0jVvEupeE7MlrrSUge4GPlX7QGMYB9cLnGOARXUN92vgL9nzxHe6v8AtqfHvT4TNJplqvhhY3aFkiW6+xTpcRpIygOwRIGZRnbuH94V6OBwHtaVap/JG/8A5NGP/t34HRRoc8Zy/lV/xS/U++nkEYr49uPhp43u/wBuqz+MjWQXwzY+BrjRVumkjBe9u9ShnMaxhvMwI4ASxULyANxJ2+jftFftA+F/2d/Akfi7W7W41a+1C9t9K0jSbHYb3U9Ru22Q2tsHZE3tgsSzKiIrO7Kikj0rwh4N03wnbXS6WbrOo3c9/MLu6muWWW5fe6oZnfy4weEijKxIOEUDitMLOthqLrpaTTitPS9vTTo10LoylThz230PDf2qX0mx0nwP4k1dWY6b420AQbf4Zb66GmqT7YuiPxrY+Jnwn0H/AIWjof7TLvf/ANq+CtJ1ezFrp8Yle+s75YZZLcxBS7sJLWJ4ljwS4x0NUf2uBrEXwgtbvQYUnntfFHhS4Kv0EUPiHTpJ29iIlcj0I7V9MiPIHNcGHxM6Uuam7aNfJqzX3aHPTqODvH+uhk6NrMOq6TbapHFLbi5iSZY50MUqBwDteNgGRhkBlIyDx1rcByMivjj4pfCT4waZ8e9A+PXwP1KGVZ44NF8T6FqdzOlnd6YJvMjvLUoJFgvrLfIV/d7biN2jcqQjD6Y8OeNPC/it7+PwzqVrqB0u6exuxbSpL9nuYgpeCUITskTcu5GwRkcYxW2KwsYQjUpu6a/8B8n+nded0rqUkkpRf/A8it4x/wCP/QP+wkv/AKImrua4TxiwN/4f/wCwmv8A6TzV3dcaMQooooAKKKKAPzX/AGmv+Uiv7MP/AFz8bf8Aprt6/SivzX/aa/5SK/sw/wDXPxt/6a7ev0ooAjKZpPL7HpUtFAEQQjjrX5Wf8FLvCP7VFh4Tj+LP7N2uXeqJbJBZX3gu58K2Xi3S7oCSSRL1rI3GnX6yREgObe7k+UIVtmKc/qxXwd/wUTj1nUP2W9d07wrb/EHUNRE9iwtvhXeW1l4o2m5Xm2lunjiWPAPnBmG6IOFBPFAH5c/sCfH3xf4p+N+geCfjx8ePD/hDVnupTZ/DLQ/AV34An1a7ELhvtQ8RedeXexAW8uxEQ3QgmR0Uqf6N6/m6/wCCXH7NH7Q2sftDeI/jx8cPEHx68N+EvDdxYxeFNB+Knie0u21Ke6tbmPUBdWFqZ4nggZoWtW8xW8zJ6x4r+kWgAr8uPAH/AClN+O3/AGIPw5/9LfFdfqPX5ceAP+Upvx2/7EH4c/8Apb4roA//0f6wP+CUv/JBvHv/AGV74n/+pjqtfpxX5j/8Epf+SDePf+yvfE//ANTHVa/TigAooooAKKKKACiiigD8wviH/wApkfhP/wBkf8ef+n3wpX6e1+YXxD/5TI/Cf/sj/jz/ANPvhSv09oAiEdLsNSUUAFFFFABRRRQAUUUUAFFFFAHj/wAMzu8W+Pcfw+II/wD006fXsFeOfDBg3i74gL6eIYx/5SdOr2OgAooooAKKKQkDrQAtFRiVSOKR5Uj+9xQBLRTA6n7vP0pvmoOv0oAlrh/GXNxog/6iUf8A6LkrtBIh+7/nFcV4x4udE/7CUf8A6LkoA7miiigAooooAK/mn/b5+ML2f/BUeD4P6H9n1xNb+Gd5peq6PqEcFxDcw3M7XraXa28rWg+1aitpFAjvcSLmZdse4bX/AKV+gr+MD9p34c/tR+Lv2of2nrnwr4cVdY0ie38XWOvalPJBqulaXoMpmtZNJlIcyRT+UfLji8vYyr8xKFB+xeC+W4evjq068ox5YWV2krylGN/SN+ay1drLU+p4ToRlWk5PZfm0vwOb/Zn/AOCofiH4N+FNbl0/xXK2vQXngea5TV/9Kn1mGbQ4LDWYTHMPtGbGW3kuFlWYEsUVwU+Vv65vhN8W4PiH4q1zw9Zsksei2ekySSLnma/tmuSucYI8oxMCOPmr+STwX8N/2OviB8QdL+EsPgyG7fwt4RmufGHi2CY3jX1lc22n2FjqdhGkF0n2m0tdUF55UMW5ZFRGkdlMtf0g/sNfDzWPDPif4jfEC0iZ/CHimbw+/ha/aeCY6hpen6DZWMd2FhY+WsrQl1V1RsNnaM19b4zZdlDbxOGpulPlTtLl11hFWt3XNNdeV7JKy9Xiqhh9akFZ/Lukl92vp9x7r+2aklx+yJ8Uobe7i0928I60q3M0scEULGxmAd5ZWWKNVPJZ2VVAyTgV/Ov8d/2mI/Cv7Lekf8EzPh/8O4/htrfibUPC/hbU5ZLuzmtrOfxC/wBoludliZ42WdIWkJ3xuFnD4DfLX6C/8Fh/2wYPhx+z18VPgPpXkRalfeF9NgSVxPLI58R31xYmFYkhMeDaWl4yyedlXVV8vlc/gP8As4eJvEF54t0z9pL9p7RbnxTJ8N4dbtNfTxKZ57bxLFDaRJa2kP2mOS2kvLWzu76QR4+WKONpMb1r0fCfg6pHJ/7TxcE4RnzQjdpucYRdN7qLi72s+rXTmNOG8rk8J7aa0TuvVJW8vL1t5n9dR8Cw2/7XWpfFDwf4x0uPU7rS9C0fWdEuofOnTT7ZtWubfyXW4RoprqacsjPG48u3cBSW3R+5/B35rLxF/wBh/Uf/AEbX4M/sz/Ff4mf8FAf23vGHjS10+wt9O+D/AMRdIjEsTlDLo9jZ+KbCKQhwS8zPcxsy5I+Y7doXbX7xfByVBZ+Iv+xg1Ef+Ra/EuOcjrZdiKeGxUk6ihC60933U0tOyt5nyWbYR0Zxpzd3ZfLTbQ9g81K4fxr8SvA3w6trK98d6vaaNDqF3FYW0l5KkKS3U2fKhQuQC77TtHfGBXz38XP2pbHwp8VtI/Z/+FejSeNPHWomK4u9Ot5lgh0rTGcCS/wBSumVlt4toPkx7WluHAWNdu5l9R8U/AvwX8RtF8S+E/itEfFugeKXjafSdWWKezgSOKOIRW8flqVQtH5xLM7+axYMo2hfnY4B0vZzxaahLXS12r2ul+V7J20OJUFHllU2f5f1sR+A/2jPgd8UbbT7v4feLNN1VNY+3mwMNwn+lppciw3r24JBljgd0DyJlBvU5wwNfCPw4/aI/bJ+OPwXsfit8FLXw5q0XjLX77S9Fma2mFppml2mqajGus3rC8D3SSWNvbqltCsTG5bJdYn2x/plovgrwz4cs7HTdA062srbSrf7JZRQQpGlvb4UeTEqgBI8Ig2rgYVfQVo6VoOmaFZ/2dolrFZ2wZ3EUKBEDSuZHbaoA3M7FmPckk8muqhmWFoqXs6PNqrc2tkubSyS3vH/wFrZmtPEU4X5Y39fn/wAA+Z/AnwW8Z3ni3QfFf7Q39k+K9d8GWjro3iC2jltJjc6grpqJOn5aC3Ty1hihYTTPs8zJTJDfWgXaMLxTfNUcGl81P89K83FYudaXNPpslol10WyV7uystdEc1Wq5O7PmH9tCNB+yj8QNUe8/s9dK0W61T7T08oacn2vd7AeVX09GwKjFeK/tI+A7n4q/s7+Pfhda2gvpvEnh3VNMjtS6xiZru0khEZZiFUOXC5JAHfFetaU9w+l27XkXkSmJN8RKna20ZXKkg4PHBI9K5jMvGLJ3EDP+HSvln9pX4QfFTxr4d0jWP2fNah8OeK/D+t2+sW/2lpk02/AVre5ttRjtyGlilt5GxxlZUiYFSua+pzKqnBBo8wcA8ZrpwWLnh6sa1O113Sa9GtmuljSjVcJKSPmL/hJPibaaz4J8KfETRvO1CZWvNS1fSwq6RDdRRlDbIs032vdKHZ4z5TLsjbcynardX8H/ANpX4B/HyO4m+DPjDSvEhtGKXEVjcxyTQMpwVmhB8yIg8YdVPtXceMYlOo6AW/6CS4/78TVh3vwQ+Et/8RbH4vXHhjS28VaYkkdrrBtIvt0aSqY5EW4CiTYyMVK7sd8ZxjaFbDyU3Vi1K2nLa1/Neei0at2ZopU2nzLXpb+v+GPVBcRkZ98dqf5qivnrxp8OvjHpXw+utJ+A3iaC01+XUpdQW58TwzavAY5pmme02xz20kUI3eXCUc+TGAFU1j+BfH37QWkfDHUte+PXg61XX9LuPKjtPCd4dQj1CDEeLi3W7js2hJZmzDIxKhDh2yKn6g3T9pTmnra2z8nZ9PS9utkCw91eLXY+oKWvDvEX7SXwE8F/Em3+DfjPxdpWkeKLu0S+t9OvbmO3mnt5JGiV4RIVEnzoy4TJGOQARXs8V7bTxrNAwZGUMGHQg9CDWFXDVKajKcWk9tLXXkYzg4pNo/OH9pr/AJSK/sw/9c/G3/prt6/SivyQ/aK+Lfw61X/gq9+zj8INM1WG48SaTp3jDUL2xjO6S3t7jToEhaXHCeYVOxTgkAkDHNfrcDkVNSjKFlNW0T+XT5dglBx0asLRRRWZIV8U/tRfsBfs7/taaraeLviBDq+ieKdOtvsdn4k8L6vfaDrUFvuZhCL3T5oZJIQzswim8yMFmOzLGvtaigD83P2f/wDglj+zL8AfiFYfF17zxV4/8VaQztpmq+O/EeqeJJtOMkZjY2KahPJBbOUZh5kUSy4Yrv2/LX6R0UUAFflx4A/5Sm/Hb/sQfhz/AOlviuv1Hr8uPAH/AClN+O3/AGIPw5/9LfFdAH//0v6wP+CUv/JBvHv/AGV74n/+pjqtfpxX5j/8Epf+SDePf+yvfE//ANTHVa/TigAooooAKYXUDNPr8nvjP/wVH8IfDn/gpR8Kf+Cc/hDw9J4g1Dxu98uv60JTDa6C8Wl3Op2Vsf3bLNdXUdq7NDvjMUJSQ53qCAfq75ijrS71FfzC/Cb/AIOLNP8AHvw5+M/x91vwf4Vj8EfCzR9Y1Wzt9M8YQXviO/8AsOqDTNO8/SfscYtYL5yGEwnmWLcgAfetfq/+wZ+2344/ak174k/CH42+DrfwH8RPhTqlhY61pljqLarZPBqthFqNhc2129tZuyywuVZWhXa0ZHIINAGB8Q/+UyPwn/7I/wCPP/T74Ur9Pa/LP4o6npumf8FifhPdalPHbRf8Kg8drulZUGf7c8Kcc49K/Sj/AITLwh/0FbP/AL/x/wCNAHSUVzf/AAmXhD/oK2f/AH/j/wAaP+Ey8If9BWz/AO/8f+NAHSUVzf8AwmXhD/oK2f8A3/j/AMaP+Ey8If8AQVs/+/8AH/jQB0lReatYH/CZeEP+grZ/9/4/8a+Rf2tf2l9S/Z88J6N8X/D1zpeo+F9I1S2XxZC7FrmLSLhhbyXlqyPgGyd0uJlZGDQK+CpAz1YDBTxNaOHp7y0XTXovnsjSjRdSShE+2fNXsOKPNX06V+aHi39t/wAYfDj4meDvhBqnh+38W65f2Gra34iPheZZorDSrRZl06SP7U8O6fUJkijWMtw3mKCVXzK73xZ44/aN8f8Axtt9I+Hmt6N4H8B6NbWtxeX+pQQajea1PcMHktbWNLqIWcdtECjzyb2MjYWIqu5vReQVY2dWUYppu7a2Ttsru7eytqve+HU3eCkrc1krH3mJFqH7QoIBwM9P/rV8M/AL9sI/FnQ7lvEulQ2N3D4t1/wt5mn3C3dnEuiTXES3lw0nktDFP9n2qoV/nZVz83y/Buo/tvfHP4f6V41+OWs2dv4h1/wTPpnhbxh4T0yRRaWUGlzXep3viKyM1wJGhvdJuI/Ih2mTzljRjII2FdOE4TxdWrOgrKUbK111dl5Wvpfa9l1RtTyqrJuOitb/ACP15+F8mPFvxAOP+Zhj/wDTTp1ey+YtfkNqH7Rfxi8deL7S9/Y/trLUdF1f4gE+I9U1aZbCG10vTNPs4Lu28i4X7V5tzIjrBKkDR/u8k7XQt9L/ABF/aj8U2el6F8Rf2etF0/4meFbp7mLU4rDVLez1WNopBEstnHeNFbTojpKssbzRN90oX5B5FkGI9zWN5X0bS5baWleyjezsna9tDJ4Gasna/a+3r28j7iMgXqKTzk6fhXxD4q/bGi0j4GeL/idaeGbyx13wp4ek1xtF1eWC2811glnFqLuBri3aRRDiTynk8vcoPzEgcPqPxj+Mvxk/Zxt/jT8CfFOk+HNV1nwxFcWuma3p8mYNSLpNJKyyPHPt8kSRxxNEQxMcgbbwyp5FXa5ptRjzKN3sm9el9Lap2t2uKOCnbWy1sfot5qjimmZRww/yK/H/AET/AIKCftAXui/CSK5+HNk3iTx/Bea3qmhRaisdxp+g2qWwaQvciBEvUlvYN1tIMkK6Eq5G3234r/Gr9prUfil4U+H3wztfD/h/Qri/vbzXvEN5eC+jttI0u4tTEiRKIVW51ON5ECM37hVeQO2yuufCuJhUVOrKEbqTvzxtaF09m39l8unvfZuXLLqidpNLfquh/Hl/wTU/4X38JPiF8PfiD8BvCv8AwlXxJ0GD4jR6toOm6Br2j6mtx9kv59KTxPrF5LJpl/aPN9kSCCGO1kR5rcguYyH/AFv+Cv7VH7afxvuvBWm+Nr3VPiH4eh8T/C2+vNW1nwcdCm0rXdQv5xr+kwwG2t98enxRwSi48pnt/Mw07da/UT4I/CP4n6z4N+M73Hxes7DTfin4ju9V8NarorWss9ppl4IhHdQXAmfdJJZrHBERgReWsyjc2B6T4h+IfxS/ZS/ZavPiD8VviXp3jOfwJHf6lqFwunRrd6vptvbzC0s8RXISK7Z/JaW4CMrFWURKrAqq2RUvaexw9aMpXUUrS1ult7tt/dtffy1HUwcOblhNdF/WnyPiDwZ8R/2jv2fP+CNvw88QfDVNS0TXBrFnZa3qK6RLqt/omiXmvyR6jqSaYY3ed7W0cyKrROFH7wo6qVr8Zv2wdH/b3/bP8BW/xN8Ya94jni8HeCfjO/hLUU8MRWU+uW2ky6ZDpGoSWU1ojWN9qkFxJBC8UcMqJbGa0WPzpCf6p9C+IX7Wg+BUd/LP4MufHEWkaNcJDcXM0EN3flQ+q20yR5+y5wYrWVGmAY73jwNh86+IPx3/AGgf2dv2UNZ+NXxR1/wzrPiLS7PVdY1Kys8rDbbrSVtP0zTRH81yUu/IiaafDTKXYBTsRcKeQTnP2VOpBty5Ur7vy026X0XT0iOCblypre39eXQ+j/2GfhnD8Gv2O/hn8NIwAdL8OafHJi2hs8zPAskpa3gWOONmdmLBUX5sk8mvdvGcwS40T/sJIP8AyHJXjXhTxj8ULTw54Y0/xFqnh3ULw6G39uXpuDbn+1lig8rybVQ6/Z5HM5kzKrIFQKGydvzd8Mv2mvjn4j0e31z9pDwXY+FRY61pulW8OmX41K4vLp3ktbu/EKKPJ03eySQM7mUQB5ZFVQM88cpqShKcJRajZbpN30Vk7N7dFotXYhYSTTaa0P0u81ab5y4yQR9a+DfBXxM/a+t/iRF4T8f2XgS58KW95KZfEVrq08Nxc2TK3krFpjQSLHco20TbroxY5Tk7V89+IH7Xfx3l+IOmfD74Z+DIWl0OP+2fFcpvIpE+wefLHa6fpM0ggt7m/vI4vObcyR20QKu/mMmOmjw7WnU9nCcNr35o2S6X10223u0rJtI0jgJSlyxa+8/TPz03FcHj2p4kUnAFfnJ8XvGv7UPhv4yW/ibwn4h0K6+FdkP7a1C2s4Bca+Vs7Vlk0i2hEoS4N7MVmimBVoyrRkMrLnsfiF+2xo3gX4/eEf2ftO8M6hqt34xWKa11SKSBdOitoy7X7zTBz5bWcQjby3UGYzIsWfmK5QyKvPl9g4yvFy0eyW972s0t/LXYlYKTtytPT7j7llfuOgr+K3wZ8M/2oP2o/wDgor48+FOs2usq8GmeMYbm8ukuNMELyz6l/YJ1K6i23FxbRmW1FrHN5oFv5YjieEZP9J8erftX/EH4sz+I28YeHPh/4N0+W3jtdHMUGs3moxRXE32iae5E8C2v2iAQ+UiCXyw2Xy3yj6U8GHw74W0q4vvEetaTqWu3YzfalbxQWb3QQsIPMVXcnyoisYyx6EjbnbX2PC/FX+r9OvyKFSpVikrXfI+97W0T6Pe3S56eX4/6nGdrNyVvT8PyP5Tv+Cf3wh1nwn4Mtvi/Z3d4/jVPHnw+0ZdSinnDjTNXj0q6v7b5WTfBJbpbxyh9w8uIqpVCwP7R/s2/tCeKf2eP2cPC/wAU/wBqQeMfEup/ESS+1S+ubCzutasNHmacm2sIoLdZLm3iljZY4AsTxF1ILoGj3fRPgj4eeFoPgH8G/h3LfWU6+EjolxdFJ0jAbTbIlZACwP8Ax8BODyc4PevrnQr34d+GdDtPDeg39jbWVjCkEESzoRHHGu1VGW6AcDNenxn4h0szqzdejdOV97NRiuVRTt7qbtKyVr9DrzfPY4iT546X/BK3y77H8vf/AAVR+G/ij40fE/QfjF8JfDF54p1j4k6DF4S1bwzqcMFzdeE7q4ggv9OkmtIpJRHqAglvHXeT5Y8xkYdT9Q+Bv2JPGHxE/aT139mD4ia/Yap8P/Ayadqur6bZWf8AZn28+IdD1zSpJcxtLK1wUeBZHecIVhVlRXFfrn8UND8Ba38QvA/iOwksvPt/ES3l/cQyRK7JbaTqUUBmYYLKskqqM5xuwOK5v4Sx+F7D9pv4s+PWvbNV1QaFYJL58eXFjZNKRjPRftXX/a9q6n4n1/7Kp4OglF06bs+t3OMV6csLqNrPXW7NHxBL6uqUNOWP6pfgtEYvwT/ZA+GfwS8LT+L/AA74UTw/4pvriLV9Yt/Dmo3Rj1O+s0nWISyTtbrOJRM7OJkRHkYM/KgjhP2av2idc+NNh4l8A2Hgzxp4A1TUbnVbiHVdX0hFtrK4kbCp5hkliknhZt20gxtsIJ6V+gP/AAlvhHkf2rZ4/wCu8f8AjXj/AMHvFHhJbHXt2p2gLa9qZH76Pkeeeevf2r8yrZw6zlUxac56Wbk9LdLO91srPorbHz0sW53dXV9Ndj2jRtC/s+2ja5dbi88qKKe68tUkmMQ4L7R6knHQEnAFdEFwAB2rnB4x8HjgarZ/9/4/8aX/AITLwh/0FbP/AL/x/wCNeP5s5GzpKK5v/hMvCH/QVs/+/wDH/jR/wmXhD/oK2f8A3/j/AMaBH8Mv/BwlrvxJ0f8A4KF3Pijwdq3ii81XS/DmhxeHvCs0PiKxj1GdrzzJpPBup6DcyQnUyjGO6W9tVVFDAeaCoX03xP8At7ftxfssftJ/tteLPiF478R6fqukeHfCOqeEvCt34afX/sFpfraRvd2xe8trJIdMe8a2vdsoWaRmu2Q+SYj/AGjnxb4Qzn+1bP8A7/x9PTrR/wAJb4QIwdVs/wDv/H0/OgD+MjQP+Ct//BVy/wDhP/ZOp3Utna6f8XYfDF747tPB82u3S+G59N+2W0q6TYwwRXImnXyTc20KrtZdnzFWPinh3/guN/wVb+IPwI+Ffi+51HSfB8fivQ/E98PE8mhb7DVPEel65cWFnoLwsk5hT7NEkrxwKbyXd+7b5CD/AGD/ALUX7MX7G/7aXg2x8BftOaTpfinTdKvE1GwEl29tPaXcasizW1zazQ3ELhWIzHIvBr0j4K/D/wDZ4/Zz+F2kfBT4G2ujeF/CmgxGHT9MsHjjt4EZzI21d3JZ2Z2Y5LMSTyTQB+c3/BQTxd4S8Uf8EztF8W/tnWuraBNq8Giz6rD4fGs/2fZatPEG26sNO8i//sKK4OLwSeWfJwrbZduPOP8Ag3b1b4lXv/BOO10T4kf2pcnRvFGv2OlapqMt1JBqulreNJaXumC9VblNNdJDHaxyl2VI/vEEAftofFvhA9dVs/X/AF8f+PalXxf4QU8arZ/9/wCP/GgDN8Y/8hDQP+wkv/oiau6ryDxh4y8ItqGgFdUtCBqS5Imj4H2ebrg8Cu7/AOEy8If9BWz/AO/8f+NAHSVW8g42nGKxP+Ey8If9BWz/AO/8f+NH/CZeEP8AoK2f/f8Aj/xpNAc18QvhF8Mvi5oZ8MfFbw7pfiXTWJJttVtIbyLJGMhJkZenHTpT7X4V+CbDWtG1/TrFLWfw9YzabpywFoobe0n8nfEkCERbf9HiC5Q7FXCbQSD0X/CZeEP+grZ/9/4/8aP+Ey8If9BWz/7/AMf+NbxxFRR5FJ27dNdH+Baqzty30Pye+IvwM+F3wU/4KG/s8xfDPR4NLfX7vx5qepSqXeW6up9NgZpJpZGaRyOihiQigKm1QBX7CKMDFfmD+0Tr2h6t/wAFFv2Yl0q8guSsXjYkRSK+B/Zdv/dJr9PC6gZPQUq9edWXPUd33YpzcneQ+ivlT9n79uL9kb9qvxP4m8Gfs4/EHRvGWqeD5lg1e30u4WZrZmLKrccPGWRlEse6PcrLuypA+q6yJCiiigAooooAK/LjwB/ylN+O3/Yg/Dn/ANLfFdfqPX5ceAP+Upvx2/7EH4c/+lviugD/0/6wP+CUv/JBvHv/AGV74n/+pjqtfpxX5j/8Epf+SDePf+yvfE//ANTHVa/TigAooooAK/FD4h/8ERvgl4j/AGy/B37YvgDxl4p8MX2ieMtU8b61pkGrahJa6lqGpWTWjGBPtaRWPVFl2ROJrZPsrDymwP2vooA/nY+Iv/BDb4mftNweJ9H/AGx/jJB4vtR4K1nwP4TudO8N2mlXVpbaxeQX5vtTWGQ2t3dW8trAsYtoLSPCF8B3+X9Bv2Af2H/iB+yzq3xH+Lnx28Z23jr4kfFTUrC81vU9PsH0uxS30iwi06wtbe1kuLplSOKMsxMnLyNgAAV+kNFAHy5+0H+yB+yD+1LfaRcftRfDnwt48uNJWaPTD4j0y01BrdZ9hmFv9pjcrv2IWC/3VJ6CvBP+HP3/AASk/wCjb/ht/wCEzpn/AMYr+br/AIL4Xtmn7Y/xJl8f3DQeNNO+GPhKb4GKJGS4/wCEll8V7b1tHG5S2pFkt0m+z/vvsmNwEeK/tN0g6i2lW39rqq3ZiQzhPu+Zgbtvtnp7UAfnz/w58/4JSf8ARt/w2/8ACZ0z/wCMUf8ADnz/AIJSf9G3/Db/AMJnTP8A4xX6OUUAfnH/AMOfP+CUn/Rt/wANv/CZ0z/4xR/w58/4JSf9G3/Db/wmdM/+MV+jlFAH5x/8OfP+CUn/AEbf8Nv/AAmdM/8AjFRt/wAEe/8AglURgfs5fDbn/qWdM/T9xx+FfpBRQB+cA/4I+/8ABK0Db/wzl8N8f9izpn/yP1/z0pP+HPf/AASpzuH7OPw1z/2LOmf/ACPX6QUUAfnAf+CP3/BK0nJ/Zy+Gx+vhnTfy/wBRVO4/4JE/8En7KIzXf7O/w1hiHGW8N6WFAPbmDA57V+ldfzzf8HAnxM/YV+Hfwq8BRftZ6PpXjDxTq19f2Pgbw54j1EWHh6TULq2FvNqesGVltxaabHIJPOcNIjOBAPNdcF2B9Q+A/wDgkv8A8Es5/EfjKDUf2e/hw8UGtxQWok8N6YQiHTbJ9keYPu72YgL/ABFjXrR/4I/f8EqyCD+zj8Nuev8AxTOmc/X/AEf/AD06V/J78evG3x98E69+xj4TmHi74n/Cf4OeMvh5Y+F/FPh1bO90fxzqkkTy6hexXD3aySyw7BY6dCVHCXLyTDctf3uo+9A+CMjoaAPzjH/BH7/glb0P7OXw22jGB/wjOm8Y/wC2FKP+CP3/AASs/wCjcvhtz1/4pnTP/kf9K/R6ilygfnCP+CP3/BKvv+zh8NfT/kWdMz0/696X/hz/AP8ABKwdP2cvhtxjB/4RnTePp+44r9HaTIprQXKj83oP+CPH/BKm3hSBf2c/hwQihRu8NaaxIA2gEmDJ445znvVTUf8Agjl/wSp1G1a1P7Ovw7h3FTuh8OadG/BBxvSANg4wRnkcV+le4U6hDufm6n/BHz/glPt2j9nH4bccf8ixpnT/AL8Usn/BHv8A4JVyrtb9nP4bjjHHhrTQR+UH/wCuv0gxjpS0IFofnF/w59/4JUf9G4fDb/wmdM7dP+XeuV1//gkJ/wAEtXutOg0/9nb4bKyXIlmUeHNLU+QFYOcGAbl3FcjB+lfqDJIVU7RkjtX+fP8AtNfHr9qjV/2vfj/8Xv2mPh38TNB8Q+NfgD40tLLRbNLW0Xw/otrqtt/Z7W9zDPOwtikO6+uvKZjc3TIsRhAZQD+va1/4JF/8EnbuL7TY/s7fDSRH43J4b0wg4+kHQelWT/wR9/4JWfw/s5fDbHB/5FnTOox/07+wr80f+DeqTwjodx8fvh14Em8L3+k6V4g8P3MOofD3cngqVr3w/aF4tLhZ5TFdRPGTqP7590zq/wAm7YP6St69KSQH5y/8Off+CVWc/wDDOXw345/5FnTP/jFJ/wAOff8AglVjA/Zx+GuOmP8AhGdM/wDjFfo5uGcUm8YosB+cn/Dn3/glU2d/7OPw2JP/AFLOmfy8inf8Off+CU+Mf8M4fDb/AMJnTP8A5Hr9HKZuHSmB+cn/AA58/wCCVPQ/s4/DbHH/ADLOmdv+3enf8OfP+CUn/Rt/w2/8JnTP/jFfo5RQB+cX/Dn7/glRjH/DOHw2x/2LOmdv+3eqkP8AwRz/AOCVEM0s3/DOnw4bzmDFW8N6awGABgAwEAcdgOee5r9Jt1OpAfmrdf8ABI//AIJL2KB779nb4ZwqTgF/DelqCfQZgrhPA3/BIr/glvbWd3H4j/Z8+Gjtd6ndvab/AA/pT7rdpm8lUxCeAv3V7egri/8Agup8PPgb4r/YE1/xJ8WvAml+P9a0q6s7LwhZavHJLbQ+ItduItG0+ZkiZSUSa7UuORsB4r+fv/gop+zt/wAEzf2RL74Pf8ExvCut6V4b+J9n4b0qIePPFetGys/BOj2uq/2hd6vpyySqqa3qt4JvKhtQjupBlZbdFUsD+oD/AIc+/wDBKT/o2/4bf+Ezpn/xil/4c+f8EpP+jb/ht/4TOmf/ABiv0Ugx5CbG3jHB9am3L+FAH5y/8OfP+CUn/Rt/w2/8JnTP/jFH/Dnz/glJ/wBG3/Db/wAJnTP/AIxX6OUUAfnH/wAOfP8AglJ/0bf8Nv8AwmdM/wDjFH/Dnz/glJ/0bf8ADb/wmdM/+MV+jlFAH5x/8OfP+CUn/Rt/w2/8JnTP/jFH/Dnz/glJ/wBG3/Db/wAJnTP/AIxX6OUUAfnH/wAOfP8AglJ/0bf8Nv8AwmdM/wDjFH/Dnz/glJ/0bf8ADb/wmdM/+MV+jlFAH5XeIv8Agkd/wSxfVdLtNL/Z2+G7Ol4v2lI/DWmllh8mT74EHCbto546V1Vt/wAEiv8Agkzebvsn7OnwzlCHa2zw1pbYOOhxB1x2r+Pv422vxx+HP7cnjbTP2PrnS/Evxlj1X40XeseJPD+p303iefTptCuJ9M0/V9Mlt4mtYdMuvsdtYSNM8LTLF9j4ZsfrR/wbd+IvhtY+JvF3gP4U2XhjV7W98BeCvEOq+JPB39oQ20epXkNykmkaxBc3t1bya3b7DJdXiJb3FzvzcRqVRVAP2n/4c+f8EpP+jb/ht/4TOmf/ABij/hz5/wAEpP8Ao2/4bf8AhM6Z/wDGK/RyigD84/8Ahz5/wSk/6Nv+G3/hM6Z/8Yo/4c+f8EpP+jb/AIbf+Ezpn/xiv0cooA+N/gz/AME8v2E/2dPHMXxN+Afwd8G+C/EUMUlump6LotlY3axSgK6CaCJHCsBgrnBHbivpT4haHqnibwDrfhvRphb3moWFxbQS5I8uSWJkR8gZG0kHgdq7SkoA/le/4Iw/s3/tFeD/ANpT4deI/iT8Ntd+H2n/AAi+A1v8Mtcl1m0S0h1DxAuufa2bT3UkXtv5ULTG5TKZmUbiWNf1RVD5Z79ulTUAFFFFABRRRQAV+XHgD/lKb8dv+xB+HP8A6W+K6/Uevy48Af8AKU347f8AYg/Dn/0t8V0Af//U/rA/4JS/8kG8e/8AZXvif/6mOq1+nFfmP/wSl/5IN49/7K98T/8A1MdVr9OKACiiigAooooAKKKKAMHUfDHh7WL611PVrC3urixYyW0s0SO8LHq0bMMoT7EdK3NuOlOooAKKKKACiiigAooooAKKKKACuL8T/DzwL43aA+M9FsNW+zBhCby2inMe/G7YZFbbuwM4x0HtjtKKAOVh8E+EYNNstHi0qzW002RJrSAQRiK3kQkq8SbdqMpPBUDHbFdTilooAKKKKACs3VtRj0fS7nVrgFktYnmIXrtjXcQOnOBxWlWF4msJ9W8OX+l2uPMubaWJM8DLoVH4UAfm78Of+CpXwX+Jfw3/AGdPibo2haxDaftJ3rWGhQzLbebYsthc3+6+2zFVHl2rL+6Mh3MoxjkfVejftl/si+IrbxJeaB8UPCd7D4NYLr0kGs2LppZZtg+2MsxW3+f5P3m35vl68V/Nr8Ef+Dc3Tfgz8Mv2Z9V8D+H/AA94X+Kfg1r+L4ieJbC7upJbmK90TULDzLTeAsrpc3EMgG2D7pwex818Qf8ABBz9tX4rfs5QfBXXLL4feANQ+H/wlu/hxpOoeHru6lbxjeSXVjPFea1/oNs1rBGNPDrGftTLPO0gOBtoA/qz8e/tQfs2/CuTUYPib4/8OeHpNHMQvk1LVbO0a2M8MlxCJlmlUxmSGGWRAwG5I3YfKpIy/AP7XX7K3xU8fP8ACn4ZfEjwx4h8Tx2qXp0jTdWs7q++zOodZvs8MrS+XtKtu242lT0Ir+fDxb/wSr/bi/aV/bCT9pz9pjQvBNlpuo/Ej4deK7vQbLVJ9Thh03wlpOrWV3E0lxYQC6laW7hdQ0caMCy5/dqX9A/Zw/4JUftW/An/AIKY2/x48Jw+HfDHwstvFHiTX7m1g1R9Vt7qLWoJVQadpF/pjT6LfSSyI93Naar5MixlFh8shKAP0g8Uf8FVf2ZPCn7ct3+wvqt7bwanomi2+s65rt1qukWel6X9rkkit7OYXN7FdSXTuiAxw28mzzoS5USA19A6Z+1x+w/4k8YeGoNH+JHgm+1/xlaY0BYtW06S71O0eQrizCy+ZPE0qEYjypdSOoxX40/8FGP+CQXxa/a1+OPxi8feC9N8NNpvxC0X4e6bbG9k8qd5PDviJ9S1cy7bdtvnWRWOMhiZCu1wFwa4z9rD/gjr+0X8Rviv8YfB3wd0jwOPBHxt1zwlrCeLb2WW18QeDIvDrWnn2em2kVlLHOjCz32hjubURPPIHV/vEA/aqP8AbS/4J8fC+K88J23xU+H+gJo8U95dWket6XbC1jimMM0jxLMoQLMDG5wMSZU88V23xr/al8B/CX4I2Px70UL4s0PVLvSrazl0q8shFPFq13Daw3EVxcXENu8S+cJPllLMvEau5VG/Cf4Rf8EVviT4W8c/BbxZ420TwpeN4K8YfFbxD4hlJ8yW5j8XG5GiOCbcedLCjwiXfgRbAFLbRn326/4Jr/tDS/8ABF/4TfsCiXRx458Ez+C5NRf7S/2Bl0DWrPULsRTeTvb9zA/lhogGYgHaMkAH6oX37an7LH9p6n4Q8LfEDw1r3ifTbHUL86Dp+sWEuoyJpok+0qsHnggxtE6Pu2qjKwcrtbHxL4f/AOC037JPi7R9WtvCrSXni3w9pfhLVNT8OC/0hLqCPxdLFFCkdw98tpcNYiWNrswTPGokjWNpJHVK/PWD/gi/8d9P+Hfga00qx8MW/ijRvib8RvFmrX6TFZZtM8U2msW2np5wtw8kgF5aCWNsIixnaW2Ln568Lf8ABDn9tPwT8LtZ+Fmnab4Muv8AhKPB/wAHrK51T+0Zoriw1T4e3lidUt44/sJ82C9ihaZZvNQl4o0aPnfGAf0U/GD/AIKXfsK/BHwn4/8AFHi74o+GriX4YWE2oeItM0/U7S61O0SBhGY2s45TKJWlZYUjKgmVlj+8QKzvh3/wUc/Zl8fweK/FVxr+naH4N8KaZoeqSeJ9R1XS00qaHXYpJIQJI7uRomiMRjfzljVpPliMmGK/zifET/ght/wUI+NHiLX5fiV/whQafw38SdAtLu0vVhsppPFBaTSbiLR7XRrSGwWBkiW4fzLq4eQmYvuVRXuOqf8ABIT9tnXfiIv7QZ8N+BIdR0TVfh1rlr4IuNSmm0bU28J6Tqml31nPcrpyiEsb6O5tpzZyKJly8XyjIB/RNr37bH7HnhXwdp/xD8TfFXwfp+gatayXtjqNxrdjFa3VtDIsMk0ErTBJI45GWNmQlVchThiBXsetfFP4Z+Gvh6/xb8ReIdNsPCsVot++s3F3DFp62jqGW4N07CEQspBD7tpBGDX81n7Ov/BFX42+FPj7b/G/416X4OuLTV7L4lajc+HLMtcaboGp+MptP+w2OmrNbIJLeGG1lM04jhzLNJsiw1fTPif/AIJl/H3Xv+CPvwT/AGMvtGhXfjv4SP4R1W50vUJpX0DXLjwzPFcSaXeSrCZPslzsxv8AIbDBGMZxigD6n/aP/wCCun7KHwO0r4X3fgLU7T4nT/F/WZNG8OR+GdX0byZ2giaS4ma7vb61tVjiIER/elzM8cKqZHC190/EL9or4CfCTxTofgb4qeNdB8Na14mlEGkWGqahbWdzfSEhQttFM6PKdxCgID8xAHJAr+fP4Q/8Eg/2gx+1d4N/ax+J+g+C9C8z4sal461fwtpE7Xdlo+myeGTolrBZzSWVuLm4luUiurg+RBHuwy5ZRXTf8FM/+CTP7RP7VX7W3iD4wfDmDQvEvhX4g+DdK8I6ja6zq8+lSaN/Zt/NcvPCINPvHuIJUuN/lQTWcouIlbzcdAD9u9e/aO/ZNvLAp4n8d+EpLaC8vIMXWp2BRLzRVFzeJ88uFmsVXzZ14a3A3OFAzXna/HD/AIJ8/FWHxJ4+Xxb8PvEkfhBIm1/Uvt2l3a6ZGVzE19PvYQKU+4ZWUYHHQ1/OB+1D/wAEs/2v/h38R/2kf+CgK6D4T1C08e+A/Hnh6fw1YNcXGoadYvoSW+naxZTeT+/1nU3tQNSjRI90cgRZJGHPBaf/AMEX/wBsv9qP4MeA/if/AGH4H+G8/hP4a+DNG0fRNIuri3XxQ2manp+uSPre7TwLFtlr5MUbRXphnkkdmkWgD+q26/bZ/Y70/wAF6L8QZ/il4Rj0LxGrHR7063YLb6h5cscDraSGYJNsmljiYRk7XdUOCQK8r+Fv/BSP9k3xv8K/CfxH+IHjLQPh/eeLreGe10TXtd0hL9RcTS28I/0e7mhk82SGQRmGSRW2sAcqwH5Ffsz/APBHX4yeEf2nvhh8f/jH4f8ADC6fo2pfEPW9a0f+0pdaW1vfFFtpNtp7wNcWNrDJPtsJGupYre3Te4dYyzOa+O/C/wDwQF/aut/2SfGfwf8AFNr4Qu/FWqfBDR/h5o901w8iW+r2ev6hqdwUle13w27wTwYdRuLphlwqmgD+pNv22P2Ok+Hup/Fpvip4R/4RbRL3+zdQ1f8Atqx+w2t6P+Xaa487yo5vSNmDHjAxT/F/7af7H/w+j06Xx18VfB+jrrFta3tgbzW7CD7Ta3pYWs8O+YeZDPsbypFyj7W2k4Nfzy/tE/8ABFX9pbWP2r/FP7SHwOtPDiaLb+MvDXiDRPCy6h/Y8N3a6f4S/wCEfuwZl02+hs7i3uGaa2JtZwU3cxu1Ynhv/ghD8Z9K+F3xH8IarpHhKa78S/AS48A6HE93PewaZ4kvdY1fVXW3murUyw2cbX1v5cqKu1o/khRUjAAP6GPgT+3D+zj+0l8X/iN8DfhD4gg1TxD8LNRTS9cgjkiO2dokkfyQrs7xws4hlfaFWZWi+8pA+ua/F3/gmV+w/wDHP9jr49fGHWviNovh1tC8fyaFqdhrGnXbSah9ps9FsNPvLSe2a0jCx/aLeacSi4fzC+SgYk1+0VABRRRQAUUUUAc9a+FPDdjrdz4lstPtYdRvFVbi6jhRZpQgAUPIBuYAAY3E4xxT9F8M+H/DiTx+HrC3sFupmuJhbRLEJJnxukfYBudscseTW9RQAUUUUAFFFFABRRRQAUUUUAFFFFABRRRQAV+XHgD/AJSm/Hb/ALEH4c/+lviuv1Hr8uPAH/KU347f9iD8Of8A0t8V0Af/1f6jf+CX/wARvh74d+Cvj/S9f13TrG5T4vfE0tDPcxROoPjDVCMqzAjj2/Sv0k/4XF8Iv+hp0f8A8Drf/wCLr5O8af8ABPb9gbxl4m1Lxr4w+B/w/wBV1nVriW7vr+88NaVPc3M80jtLLNNJbF5JHJJZmJLE81i/8O0f+CcX/Rv/AMNv/CU0f/5FoA+y/wDhcXwi/wChp0f/AMDrf/4uj/hcXwi/6GnR/wDwOt//AIuvjT/h2j/wTi/6N/8Aht/4Smj/APyLR/w7R/4Jxf8ARv8A8Nv/AAlNH/8AkWgD7L/4XF8Iv+hp0f8A8Drf/wCLo/4XF8Iv+hp0f/wOt/8A4uvjT/h2j/wTi/6N/wDht/4Smj//ACLR/wAO0f8AgnF/0b/8Nv8AwlNH/wDkWgD7L/4XF8Iv+hp0f/wOt/8A4uj/AIXF8Iv+hp0f/wADrf8A+Lr40/4do/8ABOL/AKN/+G3/AISmj/8AyLR/w7R/4Jxf9G//AA2/8JTR/wD5FoA+y/8AhcXwi/6GnR//AAOt/wD4uj/hcXwi/wChp0f/AMDrf/4uvjT/AIdo/wDBOL/o3/4bf+Epo/8A8i0f8O0f+CcX/Rv/AMNv/CU0f/5FoA+y/wDhcXwi/wChp0f/AMDrf/4uj/hcXwi/6GnR/wDwOt//AIuvjT/h2j/wTi/6N/8Aht/4Smj/APyLR/w7R/4Jxf8ARv8A8Nv/AAlNH/8AkWgD7L/4XF8Iv+hp0f8A8Drf/wCLo/4XF8Iv+hp0f/wOt/8A4uvjT/h2j/wTi/6N/wDht/4Smj//ACLR/wAO0f8AgnF/0b/8Nv8AwlNH/wDkWgD7L/4XF8Iv+hp0f/wOt/8A4uj/AIXF8Iv+hp0f/wADrf8A+Lr40/4do/8ABOL/AKN/+G3/AISmj/8AyLR/w7R/4Jxf9G//AA2/8JTR/wD5FoA+y/8AhcXwi/6GnR//AAOt/wD4uj/hcXwi/wChp0f/AMDrf/4uvjT/AIdo/wDBOL/o3/4bf+Epo/8A8i0f8O0f+CcX/Rv/AMNv/CU0f/5FoA+y/wDhcXwi/wChp0f/AMDrf/4uj/hcXwi/6GnR/wDwOt//AIuvjT/h2j/wTi/6N/8Aht/4Smj/APyLR/w7R/4Jxf8ARv8A8Nv/AAlNH/8AkWgD7L/4XF8Iv+hp0f8A8Drf/wCLo/4XF8Iv+hp0f/wOt/8A4uvjT/h2j/wTi/6N/wDht/4Smj//ACLR/wAO0f8AgnF/0b/8Nv8AwlNH/wDkWgD7L/4XF8Iv+hp0f/wOt/8A4uj/AIXF8Iv+hp0f/wADrf8A+Lr40/4do/8ABOL/AKN/+G3/AISmj/8AyLR/w7R/4Jxf9G//AA2/8JTR/wD5FoA+y/8AhcXwi/6GnR//AAOt/wD4um/8Lh+Ef/Q06P8A+B1v/wDF18bf8O0f+CcX/Rv/AMNv/CU0f/5Fo/4do/8ABOL/AKN/+G3/AISmj/8AyLQB9j/8Lg+EfbxVo/8A4HW//wAXR/wuD4R/9DVo/wD4HQf/ABdfHH/DtH/gnF/0b/8ADb/wlNH/APkWj/h2j/wTi/6N/wDht/4Smj//ACLQB9jD4v8AwkHH/CVaPj/r+t//AIulHxg+Emc/8JVo/wD4HQf/ABdfHH/DtH/gnF/0b/8ADb/wlNH/APkWj/h2j/wTi/6N/wDht/4Smj//ACLQB9jf8Le+EfOfFWj/APgdB/8AF0v/AAuD4Sf9DVo//gdB/wDF18cf8O0f+CcX/Rv/AMNv/CU0f/5Fo/4do/8ABOL/AKN/+G3/AISmj/8AyLQB9jD4v/CQf8zVo/0+3W//AMXS/wDC4PhGOnirR/8AwOg/+Lr44/4do/8ABOL/AKN/+G3/AISmj/8AyLR/w7R/4Jxf9G//AA2/8JTR/wD5FoA+xx8X/hED/wAjTo//AIHW/wD8XTT8XvhHjjxVo/b/AJfbft/wP8q+Ov8Ah2j/AME4v+jf/ht/4Smj/wDyLR/w7R/4Jxf9G/8Aw2/8JTR//kWgD7GHxe+EQPy+KdH/APA6D2/26P8Ahb/wj7eKtHA/6/oP/i6+Of8Ah2j/AME4v+jf/ht/4Smj/wDyLR/w7R/4Jxf9G/8Aw2/8JTR//kWgD7GHxg+Eg/5mrR//AAOt/wD4unf8Lg+EfbxVo/8A4HQf/F18b/8ADtH/AIJxf9G//Db/AMJTR/8A5Fo/4do/8E4v+jf/AIbf+Epo/wD8i0AfY3/C3/hHjjxVo4/7foP/AIunf8Lg+EX/AENWkf8Agdb/APxdfG//AA7R/wCCcX/Rv/w2/wDCU0f/AORaP+HaP/BOL/o3/wCG3/hKaP8A/ItAH2P/AMLf+Ef/AENWj/8Agdb/APxdJ/wt/wCEeP8AkadH/wDA63/+Lr45/wCHaP8AwTi/6N/+G3/hKaP/APItH/DtH/gnF/0b/wDDb/wlNH/+RaAPsf8A4W98Iu3irR//AANt/wD4uk/4W98I+g8VaPj0+22//wAXXxz/AMO0f+CcX/Rv/wANv/CU0f8A+RaP+HaP/BOL/o3/AOG3/hKaP/8AItAH2P8A8Lf+Ef8A0NWj/wDgdb//ABdH/C3/AIRZ58U6P/4HQf8AxdfHH/DtH/gnF/0b/wDDb/wlNH/+RaP+HaP/AATi/wCjf/ht/wCEpo//AMi0AfY3/C3/AIRj7virR/8AwOt//i6l/wCFxfCL/oadH/8AA63/APi6+NP+HaP/AATi/wCjf/ht/wCEpo//AMi0f8O0f+CcX/Rv/wANv/CU0f8A+RaAPsv/AIXF8Iv+hp0f/wADrf8A+Lo/4XF8Iv8AoadH/wDA63/+Lr40/wCHaP8AwTi/6N/+G3/hKaP/APItH/DtH/gnF/0b/wDDb/wlNH/+RaAPsv8A4XF8Iv8AoadH/wDA63/+Lo/4XF8Iv+hp0f8A8Drf/wCLr40/4do/8E4v+jf/AIbf+Epo/wD8i0f8O0f+CcX/AEb/APDb/wAJTR//AJFoA+y/+FxfCL/oadH/APA63/8Ai6P+FxfCL/oadH/8Drf/AOLr40/4do/8E4v+jf8A4bf+Epo//wAi0f8ADtH/AIJxf9G//Db/AMJTR/8A5FoA+y/+FxfCL/oadH/8Drf/AOLo/wCFxfCL/oadH/8AA63/APi6+NP+HaP/AATi/wCjf/ht/wCEpo//AMi0f8O0f+CcX/Rv/wANv/CU0f8A+RaAPsv/AIXF8Iv+hp0f/wADrf8A+Lo/4XF8Iv8AoadH/wDA63/+Lr40/wCHaP8AwTi/6N/+G3/hKaP/APItH/DtH/gnF/0b/wDDb/wlNH/+RaAPsv8A4XF8Iv8AoadH/wDA63/+Lo/4XF8Iv+hp0f8A8Drf/wCLr40/4do/8E4v+jf/AIbf+Epo/wD8i0f8O0f+CcX/AEb/APDb/wAJTR//AJFoA+y/+FxfCL/oadH/APA63/8Ai6P+FxfCL/oadH/8Drf/AOLr40/4do/8E4v+jf8A4bf+Epo//wAi0f8ADtH/AIJxf9G//Db/AMJTR/8A5FoA+y/+FxfCL/oadH/8Drf/AOLo/wCFxfCL/oadH/8AA63/APi6+NP+HaP/AATi/wCjf/ht/wCEpo//AMi0f8O0f+CcX/Rv/wANv/CU0f8A+RaAPsv/AIXF8Iv+hp0f/wADrf8A+Lo/4XF8Iv8AoadH/wDA63/+Lr40/wCHaP8AwTi/6N/+G3/hKaP/APItH/DtH/gnF/0b/wDDb/wlNH/+RaAPsv8A4XF8Iv8AoadH/wDA63/+Lr85vhH4i0DxR/wU/wDjvqXhq9g1G3HgP4dIZLWRZkDC88V5XchIBwRxXp3/AA7R/wCCcX/Rv/w2/wDCU0f/AORa+gPgD+zL+zd+z9Fq0XwG+H3hrwQuqPH9sGgaTZ6aLjyN/k+cLWKPzPL8x9m7O3c2MZNAH//Z;" vertex="1" parent="1">
          <mxGeometry x="-402" y="88" width="557" height="234" as="geometry" />
        </mxCell>
        <mxCell id="Zgb6_lK5QYEBWif7ZU31-4" value="" style="rounded=1;whiteSpace=wrap;html=1;fillColor=none;" vertex="1" parent="1">
          <mxGeometry x="-97" y="183" width="25" height="19" as="geometry" />
        </mxCell>
        <mxCell id="Zgb6_lK5QYEBWif7ZU31-5" value="$$B^*$$" style="text;html=1;align=center;verticalAlign=middle;resizable=0;points=[];autosize=1;strokeColor=none;fillColor=none;" vertex="1" parent="1">
          <mxGeometry x="-109" y="162" width="63" height="26" as="geometry" />
        </mxCell>
        <mxCell id="Zgb6_lK5QYEBWif7ZU31-7" value="" style="rounded=1;whiteSpace=wrap;html=1;fillColor=none;" vertex="1" parent="1">
          <mxGeometry x="-109" y="206" width="19" height="78" as="geometry" />
        </mxCell>
        <mxCell id="Zgb6_lK5QYEBWif7ZU31-9" value="$$A^*$$" style="text;html=1;align=center;verticalAlign=middle;resizable=0;points=[];autosize=1;strokeColor=none;fillColor=none;" vertex="1" parent="1">
          <mxGeometry x="-155" y="232" width="63" height="26" as="geometry" />
        </mxCell>
      </root>
    </mxGraphModel>
  </diagram>
</mxfile>
